<svg width="1600" height="1024" xmlns="http://www.w3.org/2000/svg">
<rect width="1600" height="1024" fill="#555555" />
<defs>
  <marker id="pin_marker" markerHeight="5" markerUnits="strokeWidth" markerWidth="5" orient="auto" refX="50" refY="50" viewBox="0 0 100 100">
    <circle cx="50" cy="50" fill="#000000" r="30" stroke="#000000" stroke-width="10"/>
  </marker>
</defs>
<rect fill="#000000" height="90" rx="10" ry="10" stroke="#000000" stroke-width="5" width="75" x="763" y="467"/>
<ellipse cx="778" cy="482" fill="#000000" rx="5" ry="5" stroke="#ffffff" stroke-width= "1"/>
<g class="pin_layer">
<rect fill="#cccccc" height="10" rx="2" ry="2" stroke="#000000" stroke-width="1" width="20" x="743" y="487.0"/>
<text fill="#000000" font-family="Arial" font-size="8" stroke="#ffffff" text-anchor="middle" x="753.0" y="495.0">1</text>
<rect fill="#cccccc" height="10" rx="2" ry="2" stroke="#000000" stroke-width="1" width="20" x="837" y="507.0"/>
<text fill="#000000" font-family="Arial" font-size="8" stroke="#ffffff" text-anchor="middle" x="847.0" y="515.0">5</text>
<rect fill="#cccccc" height="10" rx="2" ry="2" stroke="#000000" stroke-width="1" width="20" x="743" y="527.0"/>
<text fill="#000000" font-family="Arial" font-size="8" stroke="#ffffff" text-anchor="middle" x="753.0" y="535.0">3</text>
</g>
<g class="label_layer">
<rect fill="#FFFFFF" height="15" rx="3" ry="3" stroke="#757575" stroke-width="1" width="13.2" x="719.8" y="484.5"/><text fill="#000000" font-family="Arial" font-size="12" font-weight="normal" font-style="normal" text-anchor="middle" x="726.4" y="497.0">G</text>
<rect fill="#FFFFFF" height="15" rx="3" ry="3" stroke="#757575" stroke-width="1" width="13.2" x="867" y="504.5"/><text fill="#000000" font-family="Arial" font-size="12" font-weight="normal" font-style="normal" text-anchor="middle" x="873.6" y="517.0">D</text>
<rect fill="#FFFFFF" height="15" rx="3" ry="3" stroke="#757575" stroke-width="1" width="13.2" x="719.8" y="524.5"/><text fill="#000000" font-family="Arial" font-size="12" font-weight="normal" font-style="normal" text-anchor="middle" x="726.4" y="537.0">S</text>
</g>
<g class="legend_layer" transform="translate(20, 20)" id="legend">
<rect fill="#FFFFFF" height="15" rx="3" ry="3" stroke="#757575" stroke-width="1" width="100" x="0" y="0"/>
<text fill="#000000" font-family="Arial" font-size="12" font-weight="normal" font-style="normal" text-anchor="middle" x="50.0" y="12">OTHER</text>
</g>
<text fill="#B2B2B2" font-family="KaiTi" font-size="22" font-weight="bold" text-anchor="middle" x="800" y="512">3402LQ</text>
<text fill="#B2B2B2" font-family="KaiTi" font-size="12" text-anchor="middle" x="800" y="532">PID</text>
<text fill="#B2B2B2" font-family="KaiTi" font-size="10" text-anchor="middle" x="800" y="542">6 PIN</text>
</svg>