<svg width="716.0018823529412" height="281.76" xmlns="http://www.w3.org/2000/svg">
<rect width="716.0018823529412" height="281.76" fill="#555555" />
<defs>
  <marker id="pin_marker" markerHeight="5" markerUnits="strokeWidth" markerWidth="5" orient="auto" refX="50" refY="50" viewBox="0 0 100 100">
    <circle cx="50" cy="50" fill="#000000" r="30" stroke="#000000" stroke-width="10"/>
  </marker>
</defs>
<rect fill="#000000" height="100" rx="10" ry="10" stroke="#000000" stroke-width="5" width="80" x="318.0" y="90.0"/>
<ellipse cx="328.0" cy="100.0" fill="#000000" rx="5" ry="5" stroke="#ffffff" stroke-width= "1"/>
<g class="pin_layer">
<rect fill="#cccccc" height="10" rx="0.5" ry="0.5" stroke="#000000" stroke-width="0" width="15" x="316.0" y="115.0"/>
<text fill="#000000" font-family="Arial" font-size="10" stroke="#ffffff" text-anchor="middle" x="323.5" y="123.0">1</text>
<rect fill="#cccccc" height="10" rx="0.5" ry="0.5" stroke="#000000" stroke-width="0" width="15" x="316.0" y="135.0"/>
<text fill="#000000" font-family="Arial" font-size="10" stroke="#ffffff" text-anchor="middle" x="323.5" y="143.0">2</text>
<rect fill="#cccccc" height="10" rx="0.5" ry="0.5" stroke="#000000" stroke-width="0" width="15" x="316.0" y="155.0"/>
<text fill="#000000" font-family="Arial" font-size="10" stroke="#ffffff" text-anchor="middle" x="323.5" y="163.0">3</text>
<rect fill="#cccccc" height="10" rx="0.5" ry="0.5" stroke="#000000" stroke-width="0" width="15" x="385.0" y="155.0"/>
<text fill="#000000" font-family="Arial" font-size="10" stroke="#ffffff" text-anchor="middle" x="392.5" y="163.0">6</text>
<rect fill="#cccccc" height="10" rx="0.5" ry="0.5" stroke="#000000" stroke-width="0" width="15" x="385.0" y="115.0"/>
<text fill="#000000" font-family="Arial" font-size="10" stroke="#ffffff" text-anchor="middle" x="392.5" y="123.0">8</text>
</g>
<g class="label_layer">
<rect fill="#00ffff" height="15" rx="3" ry="3" stroke="#000000" stroke-width="1" width="44.4" x="254.6" y="112.5"/><text fill="#000000" font-family="Arial" font-size="16" font-weight="normal" font-style="normal" text-anchor="middle" x="276.8" y="125.0">Vout</text>
<rect fill="#000000" height="15" rx="3" ry="3" stroke="#ffffff" stroke-width="1" width="34.8" x="264.2" y="132.5"/><text fill="#ffffff" font-family="Arial" font-size="16" font-weight="normal" font-style="normal" text-anchor="middle" x="281.59999999999997" y="145.0">VSS</text>
<rect fill="#ff6122" height="15" rx="3" ry="3" stroke="#000000" stroke-width="1" width="34.8" x="264.2" y="152.5"/><text fill="#000000" font-family="Arial" font-size="16" font-weight="normal" font-style="normal" text-anchor="middle" x="281.59999999999997" y="165.0">IN+</text>
<rect fill="#ff6122" height="15" rx="3" ry="3" stroke="#000000" stroke-width="1" width="34.8" x="417.0" y="152.5"/><text fill="#000000" font-family="Arial" font-size="16" font-weight="normal" font-style="normal" text-anchor="middle" x="434.4" y="165.0">IN-</text>
<rect fill="#ff0000" height="15" rx="3" ry="3" stroke="#ffffff" stroke-width="1" width="34.8" x="417.0" y="112.5"/><text fill="#000000" font-family="Arial" font-size="16" font-weight="normal" font-style="normal" text-anchor="middle" x="434.4" y="125.0">VDD</text>
</g>
<g class="legend_layer" transform="translate(20, 20)" id="legend">
<rect fill="#00ffff" height="15" rx="3" ry="3" stroke="#000000" stroke-width="1" width="100" x="0" y="0"/>
<text fill="#000000" font-family="Arial" font-size="16" font-weight="normal" font-style="normal" text-anchor="middle" x="50.0" y="12">OUT</text>
<rect fill="#ff6122" height="15" rx="3" ry="3" stroke="#000000" stroke-width="1" width="100" x="0" y="20"/>
<text fill="#000000" font-family="Arial" font-size="16" font-weight="normal" font-style="normal" text-anchor="middle" x="50.0" y="32">IN</text>
<rect fill="#ff0000" height="15" rx="3" ry="3" stroke="#ffffff" stroke-width="1" width="100" x="0" y="40"/>
<text fill="#000000" font-family="Arial" font-size="16" font-weight="normal" font-style="normal" text-anchor="middle" x="50.0" y="52">VS+</text>
<rect fill="#000000" height="15" rx="3" ry="3" stroke="#ffffff" stroke-width="1" width="100" x="0" y="60"/>
<text fill="#ffffff" font-family="Arial" font-size="16" font-weight="normal" font-style="normal" text-anchor="middle" x="50.0" y="72">VS-</text>
<rect fill="#ffff00" height="15" rx="3" ry="3" stroke="#000000" stroke-width="1" width="100" x="0" y="80"/>
<text fill="#000000" font-family="Dubai Light" font-size="16" font-weight="normal" font-style="normal" text-anchor="middle" x="50.0" y="92">SHDN</text>
</g>
<text fill="#B2B2B2" font-family="Impact" font-size="26" font-weight="bold"  text-anchor="middle" x="358.0" y="110.0">GS</text>
<text fill="#B2B2B2" font-family="KaiTi" font-size="22" font-weight="bold" text-anchor="middle" x="358.0" y="140.0">8573</text>
<text fill="#B2B2B2" font-family="KaiTi" font-size="12" text-anchor="middle" x="358.0" y="160.0">QFN</text>
<text fill="#B2B2B2" font-family="KaiTi" font-size="10" text-anchor="middle" x="358.0" y="170.0">10 PIN</text>
</svg>