<svg width="1920.0" height="1228.8" xmlns="http://www.w3.org/2000/svg">
<rect width="1920.0" height="1228.8" fill="#555555" />
<defs>
  <marker id="pin_marker" markerHeight="5" markerUnits="strokeWidth" markerWidth="5" orient="auto" refX="50" refY="50" viewBox="0 0 100 100">
    <circle cx="50" cy="50" fill="#000000" r="30" stroke="#000000" stroke-width="10"/>
  </marker>
</defs>
<rect fill="#000000" height="230" rx="10" ry="10" stroke="#000000" stroke-width="5" width="145" x="888.0" y="499.0"/>
<ellipse cx="903.0" cy="514.0" fill="#000000" rx="5" ry="5" stroke="#ffffff"/>
<g class="pin_layer">
<rect fill="#cccccc" height="10" rx="2" ry="2" stroke="#000000" stroke-width="1" width="20" x="868.0" y="514.9090909090909"/>
<text fill="#000000" font-family="Arial" font-size="8" stroke="#ffffff" text-anchor="middle" x="878.0" y="522.9090909090909">1</text>
<rect fill="#cccccc" height="10" rx="2" ry="2" stroke="#000000" stroke-width="1" width="20" x="1032.0" y="514.9090909090909"/>
<text fill="#000000" font-family="Arial" font-size="8" stroke="#ffffff" text-anchor="middle" x="1042.0" y="522.9090909090909">20</text>
<rect fill="#cccccc" height="10" rx="2" ry="2" stroke="#000000" stroke-width="1" width="20" x="868.0" y="535.8181818181819"/>
<text fill="#000000" font-family="Arial" font-size="8" stroke="#ffffff" text-anchor="middle" x="878.0" y="543.8181818181819">2</text>
<rect fill="#cccccc" height="10" rx="2" ry="2" stroke="#000000" stroke-width="1" width="20" x="1032.0" y="535.8181818181819"/>
<text fill="#000000" font-family="Arial" font-size="8" stroke="#ffffff" text-anchor="middle" x="1042.0" y="543.8181818181819">19</text>
<rect fill="#cccccc" height="10" rx="2" ry="2" stroke="#000000" stroke-width="1" width="20" x="868.0" y="556.7272727272727"/>
<text fill="#000000" font-family="Arial" font-size="8" stroke="#ffffff" text-anchor="middle" x="878.0" y="564.7272727272727">3</text>
<rect fill="#cccccc" height="10" rx="2" ry="2" stroke="#000000" stroke-width="1" width="20" x="1032.0" y="556.7272727272727"/>
<text fill="#000000" font-family="Arial" font-size="8" stroke="#ffffff" text-anchor="middle" x="1042.0" y="564.7272727272727">18</text>
<rect fill="#cccccc" height="10" rx="2" ry="2" stroke="#000000" stroke-width="1" width="20" x="868.0" y="577.6363636363636"/>
<text fill="#000000" font-family="Arial" font-size="8" stroke="#ffffff" text-anchor="middle" x="878.0" y="585.6363636363636">4</text>
<rect fill="#cccccc" height="10" rx="2" ry="2" stroke="#000000" stroke-width="1" width="20" x="1032.0" y="577.6363636363636"/>
<text fill="#000000" font-family="Arial" font-size="8" stroke="#ffffff" text-anchor="middle" x="1042.0" y="585.6363636363636">17</text>
<rect fill="#cccccc" height="10" rx="2" ry="2" stroke="#000000" stroke-width="1" width="20" x="868.0" y="598.5454545454545"/>
<text fill="#000000" font-family="Arial" font-size="8" stroke="#ffffff" text-anchor="middle" x="878.0" y="606.5454545454545">5</text>
<rect fill="#cccccc" height="10" rx="2" ry="2" stroke="#000000" stroke-width="1" width="20" x="1032.0" y="598.5454545454545"/>
<text fill="#000000" font-family="Arial" font-size="8" stroke="#ffffff" text-anchor="middle" x="1042.0" y="606.5454545454545">16</text>
<rect fill="#cccccc" height="10" rx="2" ry="2" stroke="#000000" stroke-width="1" width="20" x="868.0" y="619.4545454545455"/>
<text fill="#000000" font-family="Arial" font-size="8" stroke="#ffffff" text-anchor="middle" x="878.0" y="627.4545454545455">6</text>
<rect fill="#cccccc" height="10" rx="2" ry="2" stroke="#000000" stroke-width="1" width="20" x="1032.0" y="619.4545454545455"/>
<text fill="#000000" font-family="Arial" font-size="8" stroke="#ffffff" text-anchor="middle" x="1042.0" y="627.4545454545455">15</text>
<rect fill="#cccccc" height="10" rx="2" ry="2" stroke="#000000" stroke-width="1" width="20" x="868.0" y="640.3636363636364"/>
<text fill="#000000" font-family="Arial" font-size="8" stroke="#ffffff" text-anchor="middle" x="878.0" y="648.3636363636364">7</text>
<rect fill="#cccccc" height="10" rx="2" ry="2" stroke="#000000" stroke-width="1" width="20" x="1032.0" y="640.3636363636364"/>
<text fill="#000000" font-family="Arial" font-size="8" stroke="#ffffff" text-anchor="middle" x="1042.0" y="648.3636363636364">14</text>
<rect fill="#cccccc" height="10" rx="2" ry="2" stroke="#000000" stroke-width="1" width="20" x="868.0" y="661.2727272727273"/>
<text fill="#000000" font-family="Arial" font-size="8" stroke="#ffffff" text-anchor="middle" x="878.0" y="669.2727272727273">8</text>
<rect fill="#cccccc" height="10" rx="2" ry="2" stroke="#000000" stroke-width="1" width="20" x="1032.0" y="661.2727272727273"/>
<text fill="#000000" font-family="Arial" font-size="8" stroke="#ffffff" text-anchor="middle" x="1042.0" y="669.2727272727273">13</text>
<rect fill="#cccccc" height="10" rx="2" ry="2" stroke="#000000" stroke-width="1" width="20" x="868.0" y="682.1818181818182"/>
<text fill="#000000" font-family="Arial" font-size="8" stroke="#ffffff" text-anchor="middle" x="878.0" y="690.1818181818182">9</text>
<rect fill="#cccccc" height="10" rx="2" ry="2" stroke="#000000" stroke-width="1" width="20" x="1032.0" y="682.1818181818182"/>
<text fill="#000000" font-family="Arial" font-size="8" stroke="#ffffff" text-anchor="middle" x="1042.0" y="690.1818181818182">12</text>
<rect fill="#cccccc" height="10" rx="2" ry="2" stroke="#000000" stroke-width="1" width="20" x="868.0" y="703.0909090909091"/>
<text fill="#000000" font-family="Arial" font-size="8" stroke="#ffffff" text-anchor="middle" x="878.0" y="711.0909090909091">10</text>
<rect fill="#cccccc" height="10" rx="2" ry="2" stroke="#000000" stroke-width="1" width="20" x="1032.0" y="703.0909090909091"/>
<text fill="#000000" font-family="Arial" font-size="8" stroke="#ffffff" text-anchor="middle" x="1042.0" y="711.0909090909091">11</text>
</g>
<g class="label_layer">
<rect fill="#FFFFFF" height="15" rx="3" ry="3" stroke="#757575" stroke-width="1" width="20.0" x="838.0" y="512.4090909090909"/><text fill="#000000" font-family="Candara" font-size="10" text-anchor="middle" x="848.0" y="524.9090909090909">TK7</text>
<rect fill="#afcbbf" height="15" rx="3" ry="3" stroke="#424242" stroke-width="1" width="38.0" x="790.0" y="512.4090909090909"/><text fill="#000000" font-family="Cursive" font-size="12" text-anchor="middle" x="809.0" y="524.9090909090909">XTAL1</text>
<rect fill="#FFFFFF" height="15" rx="3" ry="3" stroke="#757575" stroke-width="1" width="38.0" x="742.0" y="512.4090909090909"/><text fill="#000000" font-family="Candara" font-size="10" text-anchor="middle" x="761.0" y="524.9090909090909">PWM5_2</text>
<rect fill="#ff8302" height="15" rx="3" ry="3" stroke="#000000" stroke-width="1" width="38.0" x="694.0" y="512.4090909090909"/><text fill="#FFFFFF" font-family="Cursive" font-size="12" text-anchor="middle" x="713.0" y="524.9090909090909">TXD_3</text>
<rect fill="#FFFFFF" height="15" rx="3" ry="3" stroke="#757575" stroke-width="1" width="32.0" x="652.0" y="512.4090909090909"/><text fill="#000000" font-family="Candara" font-size="10" text-anchor="middle" x="668.0" y="524.9090909090909">PWM4N</text>
<rect fill="#00ffff" height="15" rx="3" ry="3" stroke="#424242" stroke-width="1" width="30.799999999999997" x="611.2" y="512.4090909090909"/><text fill="#000000" font-family="Cursive" font-size="12" text-anchor="middle" x="626.6" y="524.9090909090909">ADC7</text>
<rect fill="#ffff56" height="15" rx="7" ry="7" stroke="#000000" stroke-width="1" width="30.799999999999997" x="570.4000000000001" y="512.4090909090909"/><text fill="#000000" font-family="Cursive" font-size="12" text-anchor="middle" x="585.8000000000001" y="524.9090909090909">P1.7</text>
<rect fill="#FFFFFF" height="15" rx="3" ry="3" stroke="#757575" stroke-width="1" width="20.0" x="1062.0" y="512.4090909090909"/><text fill="#000000" font-family="Candara" font-size="10" text-anchor="middle" x="1072.0" y="524.9090909090909">TK6</text>
<rect fill="#afcbbf" height="15" rx="3" ry="3" stroke="#424242" stroke-width="1" width="38.0" x="1092.0" y="512.4090909090909"/><text fill="#000000" font-family="Cursive" font-size="12" text-anchor="middle" x="1111.0" y="524.9090909090909">XTAL0</text>
<rect fill="#FFFFFF" height="15" rx="3" ry="3" stroke="#757575" stroke-width="1" width="44.0" x="1140.0" y="512.4090909090909"/><text fill="#000000" font-family="Candara" font-size="10" text-anchor="middle" x="1162.0" y="524.9090909090909">MCLKO_2</text>
<rect fill="#ff8302" height="15" rx="3" ry="3" stroke="#000000" stroke-width="1" width="38.0" x="1194.0" y="512.4090909090909"/><text fill="#FFFFFF" font-family="Cursive" font-size="12" text-anchor="middle" x="1213.0" y="524.9090909090909">RXD_3</text>
<rect fill="#FFFFFF" height="15" rx="3" ry="3" stroke="#757575" stroke-width="1" width="32.0" x="1242.0" y="512.4090909090909"/><text fill="#000000" font-family="Candara" font-size="10" text-anchor="middle" x="1258.0" y="524.9090909090909">PWM4P</text>
<rect fill="#00ffff" height="15" rx="3" ry="3" stroke="#424242" stroke-width="1" width="30.799999999999997" x="1284.0" y="512.4090909090909"/><text fill="#000000" font-family="Cursive" font-size="12" text-anchor="middle" x="1299.4" y="524.9090909090909">ADC6</text>
<rect fill="#ffff56" height="15" rx="7" ry="7" stroke="#000000" stroke-width="1" width="30.799999999999997" x="1324.8" y="512.4090909090909"/><text fill="#000000" font-family="Cursive" font-size="12" text-anchor="middle" x="1340.2" y="524.9090909090909">P1.6</text>
<rect fill="#FFFFFF" height="15" rx="3" ry="3" stroke="#757575" stroke-width="1" width="20.0" x="838.0" y="533.3181818181819"/><text fill="#000000" font-family="Candara" font-size="10" text-anchor="middle" x="848.0" y="545.8181818181819">TK3</text>
<rect fill="#FFFFFF" height="15" rx="3" ry="3" stroke="#757575" stroke-width="1" width="38.0" x="790.0" y="533.3181818181819"/><text fill="#000000" font-family="Candara" font-size="10" text-anchor="middle" x="809.0" y="545.8181818181819">CMPO_2</text>
<rect fill="#FFFFFF" height="15" rx="3" ry="3" stroke="#757575" stroke-width="1" width="38.0" x="742.0" y="533.3181818181819"/><text fill="#000000" font-family="Candara" font-size="10" text-anchor="middle" x="761.0" y="545.8181818181819">T2CLKO</text>
<rect fill="#007f00" height="15" rx="3" ry="3" stroke="#424242" stroke-width="1" width="30.799999999999997" x="701.2" y="533.3181818181819"/><text fill="#43bbea" font-family="Cursive" font-size="12" text-anchor="middle" x="716.6" y="545.8181818181819">MOSI</text>
<rect fill="#FFFFFF" height="15" rx="3" ry="3" stroke="#757575" stroke-width="1" width="32.0" x="659.2" y="533.3181818181819"/><text fill="#000000" font-family="Candara" font-size="10" text-anchor="middle" x="675.2" y="545.8181818181819">PWM2N</text>
<rect fill="#00ffff" height="15" rx="3" ry="3" stroke="#424242" stroke-width="1" width="30.799999999999997" x="618.4000000000001" y="533.3181818181819"/><text fill="#000000" font-family="Cursive" font-size="12" text-anchor="middle" x="633.8000000000001" y="545.8181818181819">ADC3</text>
<rect fill="#ffff56" height="15" rx="7" ry="7" stroke="#000000" stroke-width="1" width="30.799999999999997" x="577.6000000000001" y="533.3181818181819"/><text fill="#000000" font-family="Cursive" font-size="12" text-anchor="middle" x="593.0000000000001" y="545.8181818181819">P1.3</text>
<rect fill="#FFFFFF" height="15" rx="3" ry="3" stroke="#757575" stroke-width="1" width="20.0" x="1062.0" y="533.3181818181819"/><text fill="#000000" font-family="Candara" font-size="10" text-anchor="middle" x="1072.0" y="545.8181818181819">TK5</text>
<rect fill="#FFFFFF" height="15" rx="3" ry="3" stroke="#757575" stroke-width="1" width="20.0" x="1092.0" y="533.3181818181819"/><text fill="#000000" font-family="Candara" font-size="10" text-anchor="middle" x="1102.0" y="545.8181818181819">SCL</text>
<rect fill="#007fff" height="15" rx="3" ry="3" stroke="#424242" stroke-width="1" width="30.799999999999997" x="1122.0" y="533.3181818181819"/><text fill="#E0E0E0" font-family="Cursive" font-size="12" text-anchor="middle" x="1137.4" y="545.8181818181819">SCLK</text>
<rect fill="#FFFFFF" height="15" rx="3" ry="3" stroke="#757575" stroke-width="1" width="32.0" x="1162.8" y="533.3181818181819"/><text fill="#000000" font-family="Candara" font-size="10" text-anchor="middle" x="1178.8" y="545.8181818181819">PWM3N</text>
<rect fill="#00ffff" height="15" rx="3" ry="3" stroke="#424242" stroke-width="1" width="30.799999999999997" x="1204.8" y="533.3181818181819"/><text fill="#000000" font-family="Cursive" font-size="12" text-anchor="middle" x="1220.2" y="545.8181818181819">ADC5</text>
<rect fill="#ffff56" height="15" rx="7" ry="7" stroke="#000000" stroke-width="1" width="30.799999999999997" x="1245.6" y="533.3181818181819"/><text fill="#000000" font-family="Cursive" font-size="12" text-anchor="middle" x="1261.0" y="545.8181818181819">P1.5</text>
<rect fill="#FFFFFF" height="15" rx="3" ry="3" stroke="#757575" stroke-width="1" width="26.0" x="832.0" y="554.2272727272727"/><text fill="#000000" font-family="Candara" font-size="10" text-anchor="middle" x="845.0" y="566.7272727272727">TCAP</text>
<rect fill="#FFFFFF" height="15" rx="3" ry="3" stroke="#757575" stroke-width="1" width="20.0" x="1062.0" y="554.2272727272727"/><text fill="#000000" font-family="Candara" font-size="10" text-anchor="middle" x="1072.0" y="566.7272727272727">TK4</text>
<rect fill="#007fff" height="15" rx="3" ry="3" stroke="#424242" stroke-width="1" width="23.599999999999998" x="1092.0" y="554.2272727272727"/><text fill="#E0E0E0" font-family="Cursive" font-size="12" text-anchor="middle" x="1103.8" y="566.7272727272727">SDA</text>
<rect fill="#007f00" height="15" rx="3" ry="3" stroke="#424242" stroke-width="1" width="30.799999999999997" x="1125.6" y="554.2272727272727"/><text fill="#43bbea" font-family="Cursive" font-size="12" text-anchor="middle" x="1141.0" y="566.7272727272727">MISO</text>
<rect fill="#FFFFFF" height="15" rx="3" ry="3" stroke="#757575" stroke-width="1" width="32.0" x="1166.3999999999999" y="554.2272727272727"/><text fill="#000000" font-family="Candara" font-size="10" text-anchor="middle" x="1182.3999999999999" y="566.7272727272727">PWM3P</text>
<rect fill="#00ffff" height="15" rx="3" ry="3" stroke="#424242" stroke-width="1" width="30.799999999999997" x="1208.3999999999999" y="554.2272727272727"/><text fill="#000000" font-family="Cursive" font-size="12" text-anchor="middle" x="1223.8" y="566.7272727272727">ADC4</text>
<rect fill="#ffff56" height="15" rx="7" ry="7" stroke="#000000" stroke-width="1" width="30.799999999999997" x="1249.1999999999998" y="554.2272727272727"/><text fill="#000000" font-family="Cursive" font-size="12" text-anchor="middle" x="1264.6" y="566.7272727272727">P1.4</text>
<rect fill="#ffaaff" height="15" rx="3" ry="3" stroke="#565656" stroke-width="1" width="52.4" x="805.6" y="575.1363636363636"/><text fill="#3f3f3f" font-family="Cursive" font-size="12" text-anchor="middle" x="831.8000000000001" y="587.6363636363636">ADC_ETR</text>
<rect fill="#FFFFFF" height="15" rx="3" ry="3" stroke="#757575" stroke-width="1" width="20.0" x="775.6" y="575.1363636363636"/><text fill="#000000" font-family="Candara" font-size="10" text-anchor="middle" x="785.6" y="587.6363636363636">TK2</text>
<rect fill="#FFFFFF" height="15" rx="3" ry="3" stroke="#757575" stroke-width="1" width="14.0" x="751.6" y="575.1363636363636"/><text fill="#000000" font-family="Candara" font-size="10" text-anchor="middle" x="758.6" y="587.6363636363636">T2</text>
<rect fill="#00ffff" height="15" rx="3" ry="3" stroke="#424242" stroke-width="1" width="30.799999999999997" x="710.8000000000001" y="575.1363636363636"/><text fill="#000000" font-family="Cursive" font-size="12" text-anchor="middle" x="726.2" y="587.6363636363636">ADC2</text>
<rect fill="#FFFFFF" height="15" rx="3" ry="3" stroke="#757575" stroke-width="1" width="38.0" x="662.8000000000001" y="575.1363636363636"/><text fill="#000000" font-family="Candara" font-size="10" text-anchor="middle" x="681.8000000000001" y="587.6363636363636">PWM6_2</text>
<rect fill="#FFFFFF" height="15" rx="3" ry="3" stroke="#757575" stroke-width="1" width="32.0" x="620.8000000000001" y="575.1363636363636"/><text fill="#000000" font-family="Candara" font-size="10" text-anchor="middle" x="636.8000000000001" y="587.6363636363636">PWM2P</text>
<rect fill="#007f00" height="15" rx="3" ry="3" stroke="#424242" stroke-width="1" width="16.4" x="594.4000000000001" y="575.1363636363636"/><text fill="#43bbea" font-family="Cursive" font-size="12" text-anchor="middle" x="602.6000000000001" y="587.6363636363636">SS</text>
<rect fill="#FFFFFF" height="15" rx="3" ry="3" stroke="#757575" stroke-width="1" width="32.0" x="552.4000000000001" y="575.1363636363636"/><text fill="#000000" font-family="Candara" font-size="10" text-anchor="middle" x="568.4000000000001" y="587.6363636363636">MCLKO</text>
<rect fill="#55ff00" height="15" rx="3" ry="3" stroke="#000000" stroke-width="1" width="30.799999999999997" x="511.6000000000001" y="575.1363636363636"/><text fill="#000000" font-family="Cursive" font-size="12" text-anchor="middle" x="527.0000000000001" y="587.6363636363636">NRST</text>
<rect fill="#ffff56" height="15" rx="7" ry="7" stroke="#000000" stroke-width="1" width="30.799999999999997" x="470.80000000000007" y="575.1363636363636"/><text fill="#000000" font-family="Cursive" font-size="12" text-anchor="middle" x="486.20000000000005" y="587.6363636363636">P5.4</text>
<rect fill="#FFFFFF" height="15" rx="3" ry="3" stroke="#757575" stroke-width="1" width="20.0" x="1062.0" y="575.1363636363636"/><text fill="#000000" font-family="Candara" font-size="10" text-anchor="middle" x="1072.0" y="587.6363636363636">TK1</text>
<rect fill="#FFFFFF" height="15" rx="3" ry="3" stroke="#757575" stroke-width="1" width="38.0" x="1092.0" y="575.1363636363636"/><text fill="#000000" font-family="Candara" font-size="10" text-anchor="middle" x="1111.0" y="587.6363636363636">CMP+_3</text>
<rect fill="#FFFFFF" height="15" rx="3" ry="3" stroke="#757575" stroke-width="1" width="32.0" x="1140.0" y="575.1363636363636"/><text fill="#000000" font-family="Candara" font-size="10" text-anchor="middle" x="1156.0" y="587.6363636363636">PWM1N</text>
<rect fill="#ff8302" height="15" rx="3" ry="3" stroke="#000000" stroke-width="1" width="30.799999999999997" x="1182.0" y="575.1363636363636"/><text fill="#FFFFFF" font-family="Cursive" font-size="12" text-anchor="middle" x="1197.4" y="587.6363636363636">TXD2</text>
<rect fill="#00ffff" height="15" rx="3" ry="3" stroke="#424242" stroke-width="1" width="30.799999999999997" x="1222.8" y="575.1363636363636"/><text fill="#000000" font-family="Cursive" font-size="12" text-anchor="middle" x="1238.2" y="587.6363636363636">ADC1</text>
<rect fill="#ffff56" height="15" rx="7" ry="7" stroke="#000000" stroke-width="1" width="30.799999999999997" x="1263.6" y="575.1363636363636"/><text fill="#000000" font-family="Cursive" font-size="12" text-anchor="middle" x="1279.0" y="587.6363636363636">P1.1</text>
<rect fill="#FF0000" height="15" rx="3" ry="3" stroke="#37f06b" stroke-width="1" width="23.599999999999998" x="834.4" y="596.0454545454545"/><text fill="#000000" font-family="Cursive" font-size="12" text-anchor="middle" x="846.1999999999999" y="608.5454545454545">VCC</text>
<rect fill="#FF0000" height="15" rx="3" ry="3" stroke="#37f06b" stroke-width="1" width="30.799999999999997" x="793.6" y="596.0454545454545"/><text fill="#000000" font-family="Cursive" font-size="12" text-anchor="middle" x="809.0" y="608.5454545454545">AVCC</text>
<rect fill="#FFFFFF" height="15" rx="3" ry="3" stroke="#757575" stroke-width="1" width="20.0" x="1062.0" y="596.0454545454545"/><text fill="#000000" font-family="Candara" font-size="10" text-anchor="middle" x="1072.0" y="608.5454545454545">TK0</text>
<rect fill="#FFFFFF" height="15" rx="3" ry="3" stroke="#757575" stroke-width="1" width="38.0" x="1092.0" y="596.0454545454545"/><text fill="#000000" font-family="Candara" font-size="10" text-anchor="middle" x="1111.0" y="608.5454545454545">CMP+_2</text>
<rect fill="#FFFFFF" height="15" rx="3" ry="3" stroke="#757575" stroke-width="1" width="32.0" x="1140.0" y="596.0454545454545"/><text fill="#000000" font-family="Candara" font-size="10" text-anchor="middle" x="1156.0" y="608.5454545454545">PWM1P</text>
<rect fill="#ff8302" height="15" rx="3" ry="3" stroke="#000000" stroke-width="1" width="30.799999999999997" x="1182.0" y="596.0454545454545"/><text fill="#FFFFFF" font-family="Cursive" font-size="12" text-anchor="middle" x="1197.4" y="608.5454545454545">RXD2</text>
<rect fill="#00ffff" height="15" rx="3" ry="3" stroke="#424242" stroke-width="1" width="30.799999999999997" x="1222.8" y="596.0454545454545"/><text fill="#000000" font-family="Cursive" font-size="12" text-anchor="middle" x="1238.2" y="608.5454545454545">ADC0</text>
<rect fill="#ffff56" height="15" rx="7" ry="7" stroke="#000000" stroke-width="1" width="30.799999999999997" x="1263.6" y="596.0454545454545"/><text fill="#000000" font-family="Cursive" font-size="12" text-anchor="middle" x="1279.0" y="608.5454545454545">P1.0</text>
<rect fill="#FFFFFF" height="15" rx="3" ry="3" stroke="#757575" stroke-width="1" width="56.0" x="802.0" y="616.9545454545455"/><text fill="#000000" font-family="Candara" font-size="10" text-anchor="middle" x="830.0" y="629.4545454545455">ADC_VREF+</text>
<rect fill="#ffff56" height="15" rx="7" ry="7" stroke="#000000" stroke-width="1" width="30.799999999999997" x="1062.0" y="616.9545454545455"/><text fill="#000000" font-family="Cursive" font-size="12" text-anchor="middle" x="1077.4" y="629.4545454545455">P3.7</text>
<rect fill="#FFFFFF" height="15" rx="3" ry="3" stroke="#757575" stroke-width="1" width="26.0" x="1102.8" y="616.9545454545455"/><text fill="#000000" font-family="Candara" font-size="10" text-anchor="middle" x="1115.8" y="629.4545454545455">INT3</text>
<rect fill="#ff8302" height="15" rx="3" ry="3" stroke="#000000" stroke-width="1" width="38.0" x="1138.8" y="616.9545454545455"/><text fill="#FFFFFF" font-family="Cursive" font-size="12" text-anchor="middle" x="1157.8" y="629.4545454545455">TXD_2</text>
<rect fill="#FFFFFF" height="15" rx="3" ry="3" stroke="#757575" stroke-width="1" width="26.0" x="1186.8" y="616.9545454545455"/><text fill="#000000" font-family="Candara" font-size="10" text-anchor="middle" x="1199.8" y="629.4545454545455">CMP+</text>
<rect fill="#FFFFFF" height="15" rx="3" ry="3" stroke="#757575" stroke-width="1" width="26.0" x="1222.8" y="616.9545454545455"/><text fill="#000000" font-family="Candara" font-size="10" text-anchor="middle" x="1235.8" y="629.4545454545455">TK15</text>
<rect fill="#000000" height="15" rx="3" ry="3" stroke="#ebffec" stroke-width="1" width="23.599999999999998" x="834.4" y="637.8636363636364"/><text fill="#FFFFFF" font-family="Cursive" font-size="12" text-anchor="middle" x="846.1999999999999" y="650.3636363636364">GND</text>
<rect fill="#000000" height="15" rx="3" ry="3" stroke="#ebffec" stroke-width="1" width="30.799999999999997" x="793.6" y="637.8636363636364"/><text fill="#FFFFFF" font-family="Cursive" font-size="12" text-anchor="middle" x="809.0" y="650.3636363636364">AGND</text>
<rect fill="#ffff56" height="15" rx="7" ry="7" stroke="#000000" stroke-width="1" width="30.799999999999997" x="1062.0" y="637.8636363636364"/><text fill="#000000" font-family="Cursive" font-size="12" text-anchor="middle" x="1077.4" y="650.3636363636364">P3.6</text>
<rect fill="#00ffff" height="15" rx="3" ry="3" stroke="#424242" stroke-width="1" width="38.0" x="1102.8" y="637.8636363636364"/><text fill="#000000" font-family="Cursive" font-size="12" text-anchor="middle" x="1121.8" y="650.3636363636364">ADC14</text>
<rect fill="#FFFFFF" height="15" rx="3" ry="3" stroke="#757575" stroke-width="1" width="26.0" x="1150.8" y="637.8636363636364"/><text fill="#000000" font-family="Candara" font-size="10" text-anchor="middle" x="1163.8" y="650.3636363636364">INT2</text>
<rect fill="#ff8302" height="15" rx="3" ry="3" stroke="#000000" stroke-width="1" width="38.0" x="1186.8" y="637.8636363636364"/><text fill="#FFFFFF" font-family="Cursive" font-size="12" text-anchor="middle" x="1205.8" y="650.3636363636364">RXD_2</text>
<rect fill="#FFFFFF" height="15" rx="3" ry="3" stroke="#757575" stroke-width="1" width="26.0" x="1234.8" y="637.8636363636364"/><text fill="#000000" font-family="Candara" font-size="10" text-anchor="middle" x="1247.8" y="650.3636363636364">CMP-</text>
<rect fill="#FFFFFF" height="15" rx="3" ry="3" stroke="#757575" stroke-width="1" width="26.0" x="1270.8" y="637.8636363636364"/><text fill="#000000" font-family="Candara" font-size="10" text-anchor="middle" x="1283.8" y="650.3636363636364">TK14</text>
<rect fill="#ffff56" height="15" rx="7" ry="7" stroke="#000000" stroke-width="1" width="30.799999999999997" x="827.2" y="658.7727272727273"/><text fill="#000000" font-family="Cursive" font-size="12" text-anchor="middle" x="842.6" y="671.2727272727273">P3.0</text>
<rect fill="#00ffff" height="15" rx="3" ry="3" stroke="#424242" stroke-width="1" width="30.799999999999997" x="786.4000000000001" y="658.7727272727273"/><text fill="#000000" font-family="Cursive" font-size="12" text-anchor="middle" x="801.8000000000001" y="671.2727272727273">ADC8</text>
<rect fill="#ff8302" height="15" rx="3" ry="3" stroke="#000000" stroke-width="1" width="23.599999999999998" x="752.8000000000001" y="658.7727272727273"/><text fill="#FFFFFF" font-family="Cursive" font-size="12" text-anchor="middle" x="764.6" y="671.2727272727273">RXD</text>
<rect fill="#FFFFFF" height="15" rx="3" ry="3" stroke="#757575" stroke-width="1" width="26.0" x="716.8000000000001" y="658.7727272727273"/><text fill="#000000" font-family="Candara" font-size="10" text-anchor="middle" x="729.8000000000001" y="671.2727272727273">INT4</text>
<rect fill="#FFFFFF" height="15" rx="3" ry="3" stroke="#757575" stroke-width="1" width="20.0" x="686.8000000000001" y="658.7727272727273"/><text fill="#000000" font-family="Candara" font-size="10" text-anchor="middle" x="696.8000000000001" y="671.2727272727273">TK8</text>
<rect fill="#ffff56" height="15" rx="7" ry="7" stroke="#000000" stroke-width="1" width="30.799999999999997" x="1062.0" y="658.7727272727273"/><text fill="#000000" font-family="Cursive" font-size="12" text-anchor="middle" x="1077.4" y="671.2727272727273">P3.5</text>
<rect fill="#00ffff" height="15" rx="3" ry="3" stroke="#424242" stroke-width="1" width="38.0" x="1102.8" y="658.7727272727273"/><text fill="#000000" font-family="Cursive" font-size="12" text-anchor="middle" x="1121.8" y="671.2727272727273">ADC13</text>
<rect fill="#FFFFFF" height="15" rx="3" ry="3" stroke="#757575" stroke-width="1" width="14.0" x="1150.8" y="658.7727272727273"/><text fill="#000000" font-family="Candara" font-size="10" text-anchor="middle" x="1157.8" y="671.2727272727273">T1</text>
<rect fill="#FFFFFF" height="15" rx="3" ry="3" stroke="#757575" stroke-width="1" width="38.0" x="1174.8" y="658.7727272727273"/><text fill="#000000" font-family="Candara" font-size="10" text-anchor="middle" x="1193.8" y="671.2727272727273">T0CLKO</text>
<rect fill="#FFFFFF" height="15" rx="3" ry="3" stroke="#757575" stroke-width="1" width="26.0" x="1222.8" y="658.7727272727273"/><text fill="#000000" font-family="Candara" font-size="10" text-anchor="middle" x="1235.8" y="671.2727272727273">SS_4</text>
<rect fill="#FFFFFF" height="15" rx="3" ry="3" stroke="#757575" stroke-width="1" width="38.0" x="1258.8" y="658.7727272727273"/><text fill="#000000" font-family="Candara" font-size="10" text-anchor="middle" x="1277.8" y="671.2727272727273">PWMFLT</text>
<rect fill="#FFFFFF" height="15" rx="3" ry="3" stroke="#757575" stroke-width="1" width="44.0" x="1306.8" y="658.7727272727273"/><text fill="#000000" font-family="Candara" font-size="10" text-anchor="middle" x="1328.8" y="671.2727272727273">PWMFLT2</text>
<rect fill="#FFFFFF" height="15" rx="3" ry="3" stroke="#757575" stroke-width="1" width="26.0" x="1360.8" y="658.7727272727273"/><text fill="#000000" font-family="Candara" font-size="10" text-anchor="middle" x="1373.8" y="671.2727272727273">TK13</text>
<rect fill="#ffff56" height="15" rx="7" ry="7" stroke="#000000" stroke-width="1" width="30.799999999999997" x="827.2" y="679.6818181818182"/><text fill="#000000" font-family="Cursive" font-size="12" text-anchor="middle" x="842.6" y="692.1818181818182">P3.1</text>
<rect fill="#00ffff" height="15" rx="3" ry="3" stroke="#424242" stroke-width="1" width="30.799999999999997" x="786.4000000000001" y="679.6818181818182"/><text fill="#000000" font-family="Cursive" font-size="12" text-anchor="middle" x="801.8000000000001" y="692.1818181818182">ADC9</text>
<rect fill="#ff8302" height="15" rx="3" ry="3" stroke="#000000" stroke-width="1" width="23.599999999999998" x="752.8000000000001" y="679.6818181818182"/><text fill="#FFFFFF" font-family="Cursive" font-size="12" text-anchor="middle" x="764.6" y="692.1818181818182">TXD</text>
<rect fill="#FFFFFF" height="15" rx="3" ry="3" stroke="#757575" stroke-width="1" width="20.0" x="722.8000000000001" y="679.6818181818182"/><text fill="#000000" font-family="Candara" font-size="10" text-anchor="middle" x="732.8000000000001" y="692.1818181818182">TK9</text>
<rect fill="#ffff56" height="15" rx="7" ry="7" stroke="#000000" stroke-width="1" width="30.799999999999997" x="1062.0" y="679.6818181818182"/><text fill="#000000" font-family="Cursive" font-size="12" text-anchor="middle" x="1077.4" y="692.1818181818182">P3.4</text>
<rect fill="#00ffff" height="15" rx="3" ry="3" stroke="#424242" stroke-width="1" width="38.0" x="1102.8" y="679.6818181818182"/><text fill="#000000" font-family="Cursive" font-size="12" text-anchor="middle" x="1121.8" y="692.1818181818182">ADC12</text>
<rect fill="#FFFFFF" height="15" rx="3" ry="3" stroke="#757575" stroke-width="1" width="14.0" x="1150.8" y="679.6818181818182"/><text fill="#000000" font-family="Candara" font-size="10" text-anchor="middle" x="1157.8" y="692.1818181818182">T0</text>
<rect fill="#FFFFFF" height="15" rx="3" ry="3" stroke="#757575" stroke-width="1" width="38.0" x="1174.8" y="679.6818181818182"/><text fill="#000000" font-family="Candara" font-size="10" text-anchor="middle" x="1193.8" y="692.1818181818182">T1CLKO</text>
<rect fill="#007f00" height="15" rx="3" ry="3" stroke="#424242" stroke-width="1" width="45.199999999999996" x="1222.8" y="679.6818181818182"/><text fill="#43bbea" font-family="Cursive" font-size="12" text-anchor="middle" x="1245.3999999999999" y="692.1818181818182">MOSI_4</text>
<rect fill="#FFFFFF" height="15" rx="3" ry="3" stroke="#757575" stroke-width="1" width="44.0" x="1278.0" y="679.6818181818182"/><text fill="#000000" font-family="Candara" font-size="10" text-anchor="middle" x="1300.0" y="692.1818181818182">PWM4P_2</text>
<rect fill="#FFFFFF" height="15" rx="3" ry="3" stroke="#757575" stroke-width="1" width="38.0" x="1332.0" y="679.6818181818182"/><text fill="#000000" font-family="Candara" font-size="10" text-anchor="middle" x="1351.0" y="692.1818181818182">PWM8_2</text>
<rect fill="#FFFFFF" height="15" rx="3" ry="3" stroke="#757575" stroke-width="1" width="26.0" x="1380.0" y="679.6818181818182"/><text fill="#000000" font-family="Candara" font-size="10" text-anchor="middle" x="1393.0" y="692.1818181818182">CMPO</text>
<rect fill="#FFFFFF" height="15" rx="3" ry="3" stroke="#757575" stroke-width="1" width="26.0" x="1416.0" y="679.6818181818182"/><text fill="#000000" font-family="Candara" font-size="10" text-anchor="middle" x="1429.0" y="692.1818181818182">TK12</text>
<rect fill="#ffff56" height="15" rx="7" ry="7" stroke="#000000" stroke-width="1" width="30.799999999999997" x="827.2" y="700.5909090909091"/><text fill="#000000" font-family="Cursive" font-size="12" text-anchor="middle" x="842.6" y="713.0909090909091">P3.2</text>
<rect fill="#00ffff" height="15" rx="3" ry="3" stroke="#424242" stroke-width="1" width="38.0" x="779.2" y="700.5909090909091"/><text fill="#000000" font-family="Cursive" font-size="12" text-anchor="middle" x="798.2" y="713.0909090909091">ADC10</text>
<rect fill="#FFFFFF" height="15" rx="3" ry="3" stroke="#757575" stroke-width="1" width="26.0" x="743.2" y="700.5909090909091"/><text fill="#000000" font-family="Candara" font-size="10" text-anchor="middle" x="756.2" y="713.0909090909091">INT0</text>
<rect fill="#007fff" height="15" rx="3" ry="3" stroke="#424242" stroke-width="1" width="45.199999999999996" x="688.0" y="700.5909090909091"/><text fill="#E0E0E0" font-family="Cursive" font-size="12" text-anchor="middle" x="710.6" y="713.0909090909091">SCLK_4</text>
<rect fill="#007fff" height="15" rx="3" ry="3" stroke="#424242" stroke-width="1" width="38.0" x="640.0" y="700.5909090909091"/><text fill="#E0E0E0" font-family="Cursive" font-size="12" text-anchor="middle" x="659.0" y="713.0909090909091">SCL_4</text>
<rect fill="#FFFFFF" height="15" rx="3" ry="3" stroke="#757575" stroke-width="1" width="38.0" x="592.0" y="700.5909090909091"/><text fill="#000000" font-family="Candara" font-size="10" text-anchor="middle" x="611.0" y="713.0909090909091">PWMETI</text>
<rect fill="#FFFFFF" height="15" rx="3" ry="3" stroke="#757575" stroke-width="1" width="44.0" x="538.0" y="700.5909090909091"/><text fill="#000000" font-family="Candara" font-size="10" text-anchor="middle" x="560.0" y="713.0909090909091">PWMETI2</text>
<rect fill="#FFFFFF" height="15" rx="3" ry="3" stroke="#757575" stroke-width="1" width="26.0" x="502.0" y="700.5909090909091"/><text fill="#000000" font-family="Candara" font-size="10" text-anchor="middle" x="515.0" y="713.0909090909091">TK10</text>
<rect fill="#ffff56" height="15" rx="7" ry="7" stroke="#000000" stroke-width="1" width="30.799999999999997" x="1062.0" y="700.5909090909091"/><text fill="#000000" font-family="Cursive" font-size="12" text-anchor="middle" x="1077.4" y="713.0909090909091">P3.3</text>
<rect fill="#00ffff" height="15" rx="3" ry="3" stroke="#424242" stroke-width="1" width="38.0" x="1102.8" y="700.5909090909091"/><text fill="#000000" font-family="Cursive" font-size="12" text-anchor="middle" x="1121.8" y="713.0909090909091">ADC11</text>
<rect fill="#FFFFFF" height="15" rx="3" ry="3" stroke="#757575" stroke-width="1" width="26.0" x="1150.8" y="700.5909090909091"/><text fill="#000000" font-family="Candara" font-size="10" text-anchor="middle" x="1163.8" y="713.0909090909091">INT1</text>
<rect fill="#007f00" height="15" rx="3" ry="3" stroke="#424242" stroke-width="1" width="45.199999999999996" x="1186.8" y="700.5909090909091"/><text fill="#43bbea" font-family="Cursive" font-size="12" text-anchor="middle" x="1209.3999999999999" y="713.0909090909091">MISO_4</text>
<rect fill="#007fff" height="15" rx="3" ry="3" stroke="#424242" stroke-width="1" width="38.0" x="1242.0" y="700.5909090909091"/><text fill="#E0E0E0" font-family="Cursive" font-size="12" text-anchor="middle" x="1261.0" y="713.0909090909091">SDA_4</text>
<rect fill="#FFFFFF" height="15" rx="3" ry="3" stroke="#757575" stroke-width="1" width="44.0" x="1290.0" y="700.5909090909091"/><text fill="#000000" font-family="Candara" font-size="10" text-anchor="middle" x="1312.0" y="713.0909090909091">PWM4N_2</text>
<rect fill="#FFFFFF" height="15" rx="3" ry="3" stroke="#757575" stroke-width="1" width="38.0" x="1344.0" y="700.5909090909091"/><text fill="#000000" font-family="Candara" font-size="10" text-anchor="middle" x="1363.0" y="713.0909090909091">PWM7_2</text>
<rect fill="#FFFFFF" height="15" rx="3" ry="3" stroke="#757575" stroke-width="1" width="26.0" x="1392.0" y="700.5909090909091"/><text fill="#000000" font-family="Candara" font-size="10" text-anchor="middle" x="1405.0" y="713.0909090909091">TK11</text>
</g>
<g class="legend_layer" transform="translate(20, 20)" id="legend">
<rect fill="#000000" height="15" rx="3" ry="3" stroke="#ebffec" stroke-width="1" width="100" x="0" y="0"/>
<text fill="#FFFFFF" font-family="Cursive" font-size="14" text-anchor="middle" x="50.0" y="12">GND</text>
<rect fill="#FF0000" height="15" rx="3" ry="3" stroke="#37f06b" stroke-width="1" width="100" x="0" y="20"/>
<text fill="#000000" font-family="Cursive" font-size="14" text-anchor="middle" x="50.0" y="32">VCC</text>
<rect fill="#55ff00" height="15" rx="3" ry="3" stroke="#000000" stroke-width="1" width="100" x="0" y="40"/>
<text fill="#000000" font-family="Cursive" font-size="14" text-anchor="middle" x="50.0" y="52">RESET</text>
<rect fill="#ffff56" height="15" rx="3" ry="3" stroke="#000000" stroke-width="1" width="100" x="0" y="60"/>
<text fill="#000000" font-family="Cursive" font-size="14" text-anchor="middle" x="50.0" y="72">GPIO</text>
<rect fill="#a3bf06" height="15" rx="3" ry="3" stroke="#424242" stroke-width="1" width="100" x="0" y="80"/>
<text fill="#ff8501" font-family="Cursive" font-size="14" text-anchor="middle" x="50.0" y="92">PWM</text>
<rect fill="#ff8302" height="15" rx="3" ry="3" stroke="#000000" stroke-width="1" width="100" x="0" y="100"/>
<text fill="#FFFFFF" font-family="Cursive" font-size="14" text-anchor="middle" x="50.0" y="112">USART</text>
<rect fill="#007fff" height="15" rx="3" ry="3" stroke="#424242" stroke-width="1" width="100" x="0" y="120"/>
<text fill="#E0E0E0" font-family="Cursive" font-size="14" text-anchor="middle" x="50.0" y="132">I2C</text>
<rect fill="#007f00" height="15" rx="3" ry="3" stroke="#424242" stroke-width="1" width="100" x="0" y="140"/>
<text fill="#43bbea" font-family="Cursive" font-size="14" text-anchor="middle" x="50.0" y="152">SPI</text>
<rect fill="#00ffff" height="15" rx="3" ry="3" stroke="#424242" stroke-width="1" width="100" x="0" y="160"/>
<text fill="#000000" font-family="Cursive" font-size="14" text-anchor="middle" x="50.0" y="172">ADC</text>
<rect fill="#ffaaff" height="15" rx="3" ry="3" stroke="#565656" stroke-width="1" width="100" x="0" y="180"/>
<text fill="#3f3f3f" font-family="Cursive" font-size="14" text-anchor="middle" x="50.0" y="192">DAC</text>
<rect fill="#d2ffbd" height="15" rx="3" ry="3" stroke="#422242" stroke-width="1" width="100" x="104" y="0"/>
<text fill="#3f3f3f" font-family="Cursive" font-size="14" text-anchor="middle" x="154.0" y="12">TIM</text>
<rect fill="#0055ff" height="15" rx="3" ry="3" stroke="#007fff" stroke-width="1" width="100" x="104" y="20"/>
<text fill="#ebffec" font-family="Cursive" font-size="14" text-anchor="middle" x="154.0" y="32">I2S</text>
<rect fill="#afcbbf" height="15" rx="3" ry="3" stroke="#424242" stroke-width="1" width="100" x="104" y="40"/>
<text fill="#000000" font-family="Cursive" font-size="14" text-anchor="middle" x="154.0" y="52">XTAL</text>
<rect fill="#024570" height="15" rx="3" ry="3" stroke="#424242" stroke-width="1" width="100" x="104" y="60"/>
<text fill="#ffffff" font-family="Cursive" font-size="14" text-anchor="middle" x="154.0" y="72">CAN</text>
<rect fill="#7d1f21" height="15" rx="3" ry="3" stroke="#424242" stroke-width="1" width="100" x="104" y="80"/>
<text fill="#ebffec" font-family="Cursive" font-size="14" text-anchor="middle" x="154.0" y="92">LAN</text>
<rect fill="#566a62" height="15" rx="3" ry="3" stroke="#424242" stroke-width="1" width="100" x="104" y="100"/>
<text fill="#000000" font-family="Cursive" font-size="14" text-anchor="middle" x="154.0" y="112">USB</text>
<rect fill="#757877" height="15" rx="3" ry="3" stroke="#424242" stroke-width="1" width="100" x="104" y="120"/>
<text fill="#ebffec" font-family="Cursive" font-size="14" text-anchor="middle" x="154.0" y="132">SDIO</text>
<rect fill="#0093cf" height="15" rx="3" ry="3" stroke="#424242" stroke-width="1" width="100" x="104" y="140"/>
<text fill="#ebffec" font-family="Cursive" font-size="14" text-anchor="middle" x="154.0" y="152">SWD</text>
<rect fill="#83de06" height="15" rx="3" ry="3" stroke="#424242" stroke-width="1" width="100" x="104" y="160"/>
<text fill="#000000" font-family="Cursive" font-size="14" text-anchor="middle" x="154.0" y="172">JTAG</text>
<rect fill="#e1e1e1" height="15" rx="3" ry="3" stroke="#000000" stroke-width="1" width="100" x="104" y="180"/>
<text fill="#000000" font-family="Cursive" font-size="14" text-anchor="middle" x="154.0" y="192">BOOT</text>
<rect fill="#fea3a8" height="15" rx="3" ry="3" stroke="#424242" stroke-width="1" width="100" x="208" y="0"/>
<text fill="#000000" font-family="Cursive" font-size="14" text-anchor="middle" x="258.0" y="12">RTC</text>
<rect fill="#48bced" height="15" rx="3" ry="3" stroke="#424242" stroke-width="1" width="100" x="208" y="20"/>
<text fill="#000000" font-family="Cursive" font-size="14" text-anchor="middle" x="258.0" y="32">WDG</text>
<rect fill="#c6c6c6" height="15" rx="3" ry="3" stroke="#424242" stroke-width="1" width="100" x="208" y="40"/>
<text fill="#ebffec" font-family="Cursive" font-size="14" text-anchor="middle" x="258.0" y="52">NC</text>
<rect fill="#FFFFFF" height="15" rx="3" ry="3" stroke="#757575" stroke-width="1" width="100" x="208" y="60"/>
<text fill="#000000" font-family="Cursive" font-size="14" text-anchor="middle" x="258.0" y="72">OTHER</text>
</g>
<text fill="#ffffff" font-family="Fantasy" font-size="22" font-weight="bold" text-anchor="middle" x="960.0" y="594.0">STC8H1K08T</text>
<text fill="#ffffff" font-family="Cursive" font-size="12" text-anchor="middle" x="960.0" y="614.0">PID</text>
<text fill="#ffffff" font-family="Cursive" font-size="8" text-anchor="middle" x="960.0" y="629.0">20 PIN</text>
</svg>