<svg width="1536.0" height="1152.0" xmlns="http://www.w3.org/2000/svg">
<rect width="1536.0" height="1152.0" fill="#555555" />
<defs>
  <marker id="pin_marker" markerHeight="5" markerUnits="strokeWidth" markerWidth="5" orient="auto" refX="50" refY="50" viewBox="0 0 100 100">
    <circle cx="50" cy="50" fill="#000000" r="30" stroke="#000000" stroke-width="10"/>
  </marker>
</defs>
<rect fill="#000000" height="230" rx="10" ry="10" stroke="#000000" stroke-width="5" width="145" x="696.0" y="461.0"/>
<ellipse cx="711.0" cy="476.0" fill="#000000" rx="5" ry="5" stroke="#ffffff"/>
<g class="pin_layer">
<rect fill="#cccccc" height="10" rx="2" ry="2" stroke="#000000" width="20" x="676.0" y="476.90909090909093"/>
<text fill="#000000" font-family="Cursive" font-size="8" stroke="#ffffff" text-anchor="middle" x="686.0" y="484.90909090909093">1</text>
<rect fill="#cccccc" height="10" rx="2" ry="2" stroke="#000000" width="20" x="840.0" y="476.90909090909093"/>
<text fill="#000000" font-family="Cursive" font-size="8" stroke="#ffffff" text-anchor="middle" x="850.0" y="484.90909090909093">20</text>
<rect fill="#cccccc" height="10" rx="2" ry="2" stroke="#000000" width="20" x="676.0" y="497.8181818181818"/>
<text fill="#000000" font-family="Cursive" font-size="8" stroke="#ffffff" text-anchor="middle" x="686.0" y="505.8181818181818">2</text>
<rect fill="#cccccc" height="10" rx="2" ry="2" stroke="#000000" width="20" x="840.0" y="497.8181818181818"/>
<text fill="#000000" font-family="Cursive" font-size="8" stroke="#ffffff" text-anchor="middle" x="850.0" y="505.8181818181818">19</text>
<rect fill="#cccccc" height="10" rx="2" ry="2" stroke="#000000" width="20" x="676.0" y="518.7272727272727"/>
<text fill="#000000" font-family="Cursive" font-size="8" stroke="#ffffff" text-anchor="middle" x="686.0" y="526.7272727272727">3</text>
<rect fill="#cccccc" height="10" rx="2" ry="2" stroke="#000000" width="20" x="840.0" y="518.7272727272727"/>
<text fill="#000000" font-family="Cursive" font-size="8" stroke="#ffffff" text-anchor="middle" x="850.0" y="526.7272727272727">18</text>
<rect fill="#cccccc" height="10" rx="2" ry="2" stroke="#000000" width="20" x="676.0" y="539.6363636363636"/>
<text fill="#000000" font-family="Cursive" font-size="8" stroke="#ffffff" text-anchor="middle" x="686.0" y="547.6363636363636">4</text>
<rect fill="#cccccc" height="10" rx="2" ry="2" stroke="#000000" width="20" x="840.0" y="539.6363636363636"/>
<text fill="#000000" font-family="Cursive" font-size="8" stroke="#ffffff" text-anchor="middle" x="850.0" y="547.6363636363636">17</text>
<rect fill="#cccccc" height="10" rx="2" ry="2" stroke="#000000" width="20" x="676.0" y="560.5454545454545"/>
<text fill="#000000" font-family="Cursive" font-size="8" stroke="#ffffff" text-anchor="middle" x="686.0" y="568.5454545454545">5</text>
<rect fill="#cccccc" height="10" rx="2" ry="2" stroke="#000000" width="20" x="840.0" y="560.5454545454545"/>
<text fill="#000000" font-family="Cursive" font-size="8" stroke="#ffffff" text-anchor="middle" x="850.0" y="568.5454545454545">16</text>
<rect fill="#cccccc" height="10" rx="2" ry="2" stroke="#000000" width="20" x="676.0" y="581.4545454545455"/>
<text fill="#000000" font-family="Cursive" font-size="8" stroke="#ffffff" text-anchor="middle" x="686.0" y="589.4545454545455">6</text>
<rect fill="#cccccc" height="10" rx="2" ry="2" stroke="#000000" width="20" x="840.0" y="581.4545454545455"/>
<text fill="#000000" font-family="Cursive" font-size="8" stroke="#ffffff" text-anchor="middle" x="850.0" y="589.4545454545455">15</text>
<rect fill="#cccccc" height="10" rx="2" ry="2" stroke="#000000" width="20" x="676.0" y="602.3636363636364"/>
<text fill="#000000" font-family="Cursive" font-size="8" stroke="#ffffff" text-anchor="middle" x="686.0" y="610.3636363636364">7</text>
<rect fill="#cccccc" height="10" rx="2" ry="2" stroke="#000000" width="20" x="840.0" y="602.3636363636364"/>
<text fill="#000000" font-family="Cursive" font-size="8" stroke="#ffffff" text-anchor="middle" x="850.0" y="610.3636363636364">14</text>
<rect fill="#cccccc" height="10" rx="2" ry="2" stroke="#000000" width="20" x="676.0" y="623.2727272727273"/>
<text fill="#000000" font-family="Cursive" font-size="8" stroke="#ffffff" text-anchor="middle" x="686.0" y="631.2727272727273">8</text>
<rect fill="#cccccc" height="10" rx="2" ry="2" stroke="#000000" width="20" x="840.0" y="623.2727272727273"/>
<text fill="#000000" font-family="Cursive" font-size="8" stroke="#ffffff" text-anchor="middle" x="850.0" y="631.2727272727273">13</text>
<rect fill="#cccccc" height="10" rx="2" ry="2" stroke="#000000" width="20" x="676.0" y="644.1818181818182"/>
<text fill="#000000" font-family="Cursive" font-size="8" stroke="#ffffff" text-anchor="middle" x="686.0" y="652.1818181818182">9</text>
<rect fill="#cccccc" height="10" rx="2" ry="2" stroke="#000000" width="20" x="840.0" y="644.1818181818182"/>
<text fill="#000000" font-family="Cursive" font-size="8" stroke="#ffffff" text-anchor="middle" x="850.0" y="652.1818181818182">12</text>
<rect fill="#cccccc" height="10" rx="2" ry="2" stroke="#000000" width="20" x="676.0" y="665.0909090909091"/>
<text fill="#000000" font-family="Cursive" font-size="8" stroke="#ffffff" text-anchor="middle" x="686.0" y="673.0909090909091">10</text>
<rect fill="#cccccc" height="10" rx="2" ry="2" stroke="#000000" width="20" x="840.0" y="665.0909090909091"/>
<text fill="#000000" font-family="Cursive" font-size="8" stroke="#ffffff" text-anchor="middle" x="850.0" y="673.0909090909091">11</text>
</g>
<g class="label_layer">
<rect fill="#FFFFFF" height="15" rx="3" ry="3" stroke="#757575" stroke-width="1" width="20.0" x="646.0" y="474.40909090909093"/><text fill="#000000" font-family="Candara" font-size="10" text-anchor="middle" x="656.0" y="486.90909090909093">TK7</text>
<rect fill="#afcbbf" height="15" rx="3" ry="3" stroke="#424242" stroke-width="1" width="38.0" x="598.0" y="474.40909090909093"/><text fill="#000000" font-family="Cursive" font-size="12" text-anchor="middle" x="617.0" y="486.90909090909093">XTAL1</text>
<rect fill="#FFFFFF" height="15" rx="3" ry="3" stroke="#757575" stroke-width="1" width="38.0" x="550.0" y="474.40909090909093"/><text fill="#000000" font-family="Candara" font-size="10" text-anchor="middle" x="569.0" y="486.90909090909093">PWM5_2</text>
<rect fill="#ff8302" height="15" rx="3" ry="3" stroke="#000000" stroke-width="1" width="38.0" x="502.0" y="474.40909090909093"/><text fill="#FFFFFF" font-family="Cursive" font-size="12" text-anchor="middle" x="521.0" y="486.90909090909093">TXD_3</text>
<rect fill="#FFFFFF" height="15" rx="3" ry="3" stroke="#757575" stroke-width="1" width="32.0" x="460.0" y="474.40909090909093"/><text fill="#000000" font-family="Candara" font-size="10" text-anchor="middle" x="476.0" y="486.90909090909093">PWM4N</text>
<rect fill="#00ffff" height="15" rx="3" ry="3" stroke="#424242" stroke-width="1" width="30.799999999999997" x="419.2" y="474.40909090909093"/><text fill="#000000" font-family="Cursive" font-size="12" text-anchor="middle" x="434.59999999999997" y="486.90909090909093">ADC7</text>
<rect fill="#ffff56" height="15" rx="7" ry="7" stroke="#000000" stroke-width="1" width="30.799999999999997" x="378.4" y="474.40909090909093"/><text fill="#000000" font-family="Cursive" font-size="12" text-anchor="middle" x="393.79999999999995" y="486.90909090909093">P1.7</text>
<rect fill="#FFFFFF" height="15" rx="3" ry="3" stroke="#757575" stroke-width="1" width="20.0" x="870.0" y="474.40909090909093"/><text fill="#000000" font-family="Candara" font-size="10" text-anchor="middle" x="880.0" y="486.90909090909093">TK6</text>
<rect fill="#afcbbf" height="15" rx="3" ry="3" stroke="#424242" stroke-width="1" width="38.0" x="900.0" y="474.40909090909093"/><text fill="#000000" font-family="Cursive" font-size="12" text-anchor="middle" x="919.0" y="486.90909090909093">XTAL0</text>
<rect fill="#FFFFFF" height="15" rx="3" ry="3" stroke="#757575" stroke-width="1" width="44.0" x="948.0" y="474.40909090909093"/><text fill="#000000" font-family="Candara" font-size="10" text-anchor="middle" x="970.0" y="486.90909090909093">MCLKO_2</text>
<rect fill="#ff8302" height="15" rx="3" ry="3" stroke="#000000" stroke-width="1" width="38.0" x="1002.0" y="474.40909090909093"/><text fill="#FFFFFF" font-family="Cursive" font-size="12" text-anchor="middle" x="1021.0" y="486.90909090909093">RXD_3</text>
<rect fill="#FFFFFF" height="15" rx="3" ry="3" stroke="#757575" stroke-width="1" width="32.0" x="1050.0" y="474.40909090909093"/><text fill="#000000" font-family="Candara" font-size="10" text-anchor="middle" x="1066.0" y="486.90909090909093">PWM4P</text>
<rect fill="#00ffff" height="15" rx="3" ry="3" stroke="#424242" stroke-width="1" width="30.799999999999997" x="1092.0" y="474.40909090909093"/><text fill="#000000" font-family="Cursive" font-size="12" text-anchor="middle" x="1107.4" y="486.90909090909093">ADC6</text>
<rect fill="#ffff56" height="15" rx="7" ry="7" stroke="#000000" stroke-width="1" width="30.799999999999997" x="1132.8" y="474.40909090909093"/><text fill="#000000" font-family="Cursive" font-size="12" text-anchor="middle" x="1148.2" y="486.90909090909093">P1.6</text>
<rect fill="#FFFFFF" height="15" rx="3" ry="3" stroke="#757575" stroke-width="1" width="20.0" x="646.0" y="495.3181818181818"/><text fill="#000000" font-family="Candara" font-size="10" text-anchor="middle" x="656.0" y="507.8181818181818">TK3</text>
<rect fill="#FFFFFF" height="15" rx="3" ry="3" stroke="#757575" stroke-width="1" width="38.0" x="598.0" y="495.3181818181818"/><text fill="#000000" font-family="Candara" font-size="10" text-anchor="middle" x="617.0" y="507.8181818181818">CMPO_2</text>
<rect fill="#FFFFFF" height="15" rx="3" ry="3" stroke="#757575" stroke-width="1" width="38.0" x="550.0" y="495.3181818181818"/><text fill="#000000" font-family="Candara" font-size="10" text-anchor="middle" x="569.0" y="507.8181818181818">T2CLKO</text>
<rect fill="#007f00" height="15" rx="3" ry="3" stroke="#424242" stroke-width="1" width="30.799999999999997" x="509.2" y="495.3181818181818"/><text fill="#43bbea" font-family="Cursive" font-size="12" text-anchor="middle" x="524.6" y="507.8181818181818">MOSI</text>
<rect fill="#FFFFFF" height="15" rx="3" ry="3" stroke="#757575" stroke-width="1" width="32.0" x="467.2" y="495.3181818181818"/><text fill="#000000" font-family="Candara" font-size="10" text-anchor="middle" x="483.2" y="507.8181818181818">PWM2N</text>
<rect fill="#00ffff" height="15" rx="3" ry="3" stroke="#424242" stroke-width="1" width="30.799999999999997" x="426.4" y="495.3181818181818"/><text fill="#000000" font-family="Cursive" font-size="12" text-anchor="middle" x="441.79999999999995" y="507.8181818181818">ADC3</text>
<rect fill="#ffff56" height="15" rx="7" ry="7" stroke="#000000" stroke-width="1" width="30.799999999999997" x="385.59999999999997" y="495.3181818181818"/><text fill="#000000" font-family="Cursive" font-size="12" text-anchor="middle" x="400.99999999999994" y="507.8181818181818">P1.3</text>
<rect fill="#FFFFFF" height="15" rx="3" ry="3" stroke="#757575" stroke-width="1" width="20.0" x="870.0" y="495.3181818181818"/><text fill="#000000" font-family="Candara" font-size="10" text-anchor="middle" x="880.0" y="507.8181818181818">TK5</text>
<rect fill="#FFFFFF" height="15" rx="3" ry="3" stroke="#757575" stroke-width="1" width="20.0" x="900.0" y="495.3181818181818"/><text fill="#000000" font-family="Candara" font-size="10" text-anchor="middle" x="910.0" y="507.8181818181818">SCL</text>
<rect fill="#007fff" height="15" rx="3" ry="3" stroke="#424242" stroke-width="1" width="30.799999999999997" x="930.0" y="495.3181818181818"/><text fill="#E0E0E0" font-family="Cursive" font-size="12" text-anchor="middle" x="945.4" y="507.8181818181818">SCLK</text>
<rect fill="#FFFFFF" height="15" rx="3" ry="3" stroke="#757575" stroke-width="1" width="32.0" x="970.8" y="495.3181818181818"/><text fill="#000000" font-family="Candara" font-size="10" text-anchor="middle" x="986.8" y="507.8181818181818">PWM3N</text>
<rect fill="#00ffff" height="15" rx="3" ry="3" stroke="#424242" stroke-width="1" width="30.799999999999997" x="1012.8" y="495.3181818181818"/><text fill="#000000" font-family="Cursive" font-size="12" text-anchor="middle" x="1028.2" y="507.8181818181818">ADC5</text>
<rect fill="#ffff56" height="15" rx="7" ry="7" stroke="#000000" stroke-width="1" width="30.799999999999997" x="1053.6" y="495.3181818181818"/><text fill="#000000" font-family="Cursive" font-size="12" text-anchor="middle" x="1069.0" y="507.8181818181818">P1.5</text>
<rect fill="#FFFFFF" height="15" rx="3" ry="3" stroke="#757575" stroke-width="1" width="26.0" x="640.0" y="516.2272727272727"/><text fill="#000000" font-family="Candara" font-size="10" text-anchor="middle" x="653.0" y="528.7272727272727">TCAP</text>
<rect fill="#FFFFFF" height="15" rx="3" ry="3" stroke="#757575" stroke-width="1" width="20.0" x="870.0" y="516.2272727272727"/><text fill="#000000" font-family="Candara" font-size="10" text-anchor="middle" x="880.0" y="528.7272727272727">TK4</text>
<rect fill="#007fff" height="15" rx="3" ry="3" stroke="#424242" stroke-width="1" width="23.599999999999998" x="900.0" y="516.2272727272727"/><text fill="#E0E0E0" font-family="Cursive" font-size="12" text-anchor="middle" x="911.8" y="528.7272727272727">SDA</text>
<rect fill="#007f00" height="15" rx="3" ry="3" stroke="#424242" stroke-width="1" width="30.799999999999997" x="933.6" y="516.2272727272727"/><text fill="#43bbea" font-family="Cursive" font-size="12" text-anchor="middle" x="949.0" y="528.7272727272727">MISO</text>
<rect fill="#FFFFFF" height="15" rx="3" ry="3" stroke="#757575" stroke-width="1" width="32.0" x="974.4" y="516.2272727272727"/><text fill="#000000" font-family="Candara" font-size="10" text-anchor="middle" x="990.4" y="528.7272727272727">PWM3P</text>
<rect fill="#00ffff" height="15" rx="3" ry="3" stroke="#424242" stroke-width="1" width="30.799999999999997" x="1016.4" y="516.2272727272727"/><text fill="#000000" font-family="Cursive" font-size="12" text-anchor="middle" x="1031.8" y="528.7272727272727">ADC4</text>
<rect fill="#ffff56" height="15" rx="7" ry="7" stroke="#000000" stroke-width="1" width="30.799999999999997" x="1057.2" y="516.2272727272727"/><text fill="#000000" font-family="Cursive" font-size="12" text-anchor="middle" x="1072.6000000000001" y="528.7272727272727">P1.4</text>
<rect fill="#ffaaff" height="15" rx="3" ry="3" stroke="#565656" stroke-width="1" width="52.4" x="613.6" y="537.1363636363636"/><text fill="#3f3f3f" font-family="Cursive" font-size="12" text-anchor="middle" x="639.8000000000001" y="549.6363636363636">ADC_ETR</text>
<rect fill="#FFFFFF" height="15" rx="3" ry="3" stroke="#757575" stroke-width="1" width="20.0" x="583.6" y="537.1363636363636"/><text fill="#000000" font-family="Candara" font-size="10" text-anchor="middle" x="593.6" y="549.6363636363636">TK2</text>
<rect fill="#FFFFFF" height="15" rx="3" ry="3" stroke="#757575" stroke-width="1" width="14.0" x="559.6" y="537.1363636363636"/><text fill="#000000" font-family="Candara" font-size="10" text-anchor="middle" x="566.6" y="549.6363636363636">T2</text>
<rect fill="#00ffff" height="15" rx="3" ry="3" stroke="#424242" stroke-width="1" width="30.799999999999997" x="518.8000000000001" y="537.1363636363636"/><text fill="#000000" font-family="Cursive" font-size="12" text-anchor="middle" x="534.2" y="549.6363636363636">ADC2</text>
<rect fill="#FFFFFF" height="15" rx="3" ry="3" stroke="#757575" stroke-width="1" width="38.0" x="470.80000000000007" y="537.1363636363636"/><text fill="#000000" font-family="Candara" font-size="10" text-anchor="middle" x="489.80000000000007" y="549.6363636363636">PWM6_2</text>
<rect fill="#FFFFFF" height="15" rx="3" ry="3" stroke="#757575" stroke-width="1" width="32.0" x="428.80000000000007" y="537.1363636363636"/><text fill="#000000" font-family="Candara" font-size="10" text-anchor="middle" x="444.80000000000007" y="549.6363636363636">PWM2P</text>
<rect fill="#007f00" height="15" rx="3" ry="3" stroke="#424242" stroke-width="1" width="16.4" x="402.4000000000001" y="537.1363636363636"/><text fill="#43bbea" font-family="Cursive" font-size="12" text-anchor="middle" x="410.6000000000001" y="549.6363636363636">SS</text>
<rect fill="#FFFFFF" height="15" rx="3" ry="3" stroke="#757575" stroke-width="1" width="32.0" x="360.4000000000001" y="537.1363636363636"/><text fill="#000000" font-family="Candara" font-size="10" text-anchor="middle" x="376.4000000000001" y="549.6363636363636">MCLKO</text>
<rect fill="#55ff00" height="15" rx="3" ry="3" stroke="#000000" stroke-width="1" width="30.799999999999997" x="319.6000000000001" y="537.1363636363636"/><text fill="#000000" font-family="Cursive" font-size="12" text-anchor="middle" x="335.00000000000006" y="549.6363636363636">NRST</text>
<rect fill="#ffff56" height="15" rx="7" ry="7" stroke="#000000" stroke-width="1" width="30.799999999999997" x="278.80000000000007" y="537.1363636363636"/><text fill="#000000" font-family="Cursive" font-size="12" text-anchor="middle" x="294.20000000000005" y="549.6363636363636">P5.4</text>
<rect fill="#FFFFFF" height="15" rx="3" ry="3" stroke="#757575" stroke-width="1" width="20.0" x="870.0" y="537.1363636363636"/><text fill="#000000" font-family="Candara" font-size="10" text-anchor="middle" x="880.0" y="549.6363636363636">TK1</text>
<rect fill="#FFFFFF" height="15" rx="3" ry="3" stroke="#757575" stroke-width="1" width="38.0" x="900.0" y="537.1363636363636"/><text fill="#000000" font-family="Candara" font-size="10" text-anchor="middle" x="919.0" y="549.6363636363636">CMP+_3</text>
<rect fill="#FFFFFF" height="15" rx="3" ry="3" stroke="#757575" stroke-width="1" width="32.0" x="948.0" y="537.1363636363636"/><text fill="#000000" font-family="Candara" font-size="10" text-anchor="middle" x="964.0" y="549.6363636363636">PWM1N</text>
<rect fill="#ff8302" height="15" rx="3" ry="3" stroke="#000000" stroke-width="1" width="30.799999999999997" x="990.0" y="537.1363636363636"/><text fill="#FFFFFF" font-family="Cursive" font-size="12" text-anchor="middle" x="1005.4" y="549.6363636363636">TXD2</text>
<rect fill="#00ffff" height="15" rx="3" ry="3" stroke="#424242" stroke-width="1" width="30.799999999999997" x="1030.8" y="537.1363636363636"/><text fill="#000000" font-family="Cursive" font-size="12" text-anchor="middle" x="1046.2" y="549.6363636363636">ADC1</text>
<rect fill="#ffff56" height="15" rx="7" ry="7" stroke="#000000" stroke-width="1" width="30.799999999999997" x="1071.6" y="537.1363636363636"/><text fill="#000000" font-family="Cursive" font-size="12" text-anchor="middle" x="1087.0" y="549.6363636363636">P1.1</text>
<rect fill="#FF0000" height="15" rx="3" ry="3" stroke="#37f06b" stroke-width="1" width="23.599999999999998" x="642.4" y="558.0454545454545"/><text fill="#000000" font-family="Cursive" font-size="12" text-anchor="middle" x="654.1999999999999" y="570.5454545454545">VCC</text>
<rect fill="#FF0000" height="15" rx="3" ry="3" stroke="#37f06b" stroke-width="1" width="30.799999999999997" x="601.6" y="558.0454545454545"/><text fill="#000000" font-family="Cursive" font-size="12" text-anchor="middle" x="617.0" y="570.5454545454545">AVCC</text>
<rect fill="#FFFFFF" height="15" rx="3" ry="3" stroke="#757575" stroke-width="1" width="20.0" x="870.0" y="558.0454545454545"/><text fill="#000000" font-family="Candara" font-size="10" text-anchor="middle" x="880.0" y="570.5454545454545">TK0</text>
<rect fill="#FFFFFF" height="15" rx="3" ry="3" stroke="#757575" stroke-width="1" width="38.0" x="900.0" y="558.0454545454545"/><text fill="#000000" font-family="Candara" font-size="10" text-anchor="middle" x="919.0" y="570.5454545454545">CMP+_2</text>
<rect fill="#FFFFFF" height="15" rx="3" ry="3" stroke="#757575" stroke-width="1" width="32.0" x="948.0" y="558.0454545454545"/><text fill="#000000" font-family="Candara" font-size="10" text-anchor="middle" x="964.0" y="570.5454545454545">PWM1P</text>
<rect fill="#ff8302" height="15" rx="3" ry="3" stroke="#000000" stroke-width="1" width="30.799999999999997" x="990.0" y="558.0454545454545"/><text fill="#FFFFFF" font-family="Cursive" font-size="12" text-anchor="middle" x="1005.4" y="570.5454545454545">RXD2</text>
<rect fill="#00ffff" height="15" rx="3" ry="3" stroke="#424242" stroke-width="1" width="30.799999999999997" x="1030.8" y="558.0454545454545"/><text fill="#000000" font-family="Cursive" font-size="12" text-anchor="middle" x="1046.2" y="570.5454545454545">ADC0</text>
<rect fill="#ffff56" height="15" rx="7" ry="7" stroke="#000000" stroke-width="1" width="30.799999999999997" x="1071.6" y="558.0454545454545"/><text fill="#000000" font-family="Cursive" font-size="12" text-anchor="middle" x="1087.0" y="570.5454545454545">P1.0</text>
<rect fill="#FFFFFF" height="15" rx="3" ry="3" stroke="#757575" stroke-width="1" width="56.0" x="610.0" y="578.9545454545455"/><text fill="#000000" font-family="Candara" font-size="10" text-anchor="middle" x="638.0" y="591.4545454545455">ADC_VREF+</text>
<rect fill="#ffff56" height="15" rx="7" ry="7" stroke="#000000" stroke-width="1" width="30.799999999999997" x="870.0" y="578.9545454545455"/><text fill="#000000" font-family="Cursive" font-size="12" text-anchor="middle" x="885.4" y="591.4545454545455">P3.7</text>
<rect fill="#FFFFFF" height="15" rx="3" ry="3" stroke="#757575" stroke-width="1" width="26.0" x="910.8" y="578.9545454545455"/><text fill="#000000" font-family="Candara" font-size="10" text-anchor="middle" x="923.8" y="591.4545454545455">INT3</text>
<rect fill="#ff8302" height="15" rx="3" ry="3" stroke="#000000" stroke-width="1" width="38.0" x="946.8" y="578.9545454545455"/><text fill="#FFFFFF" font-family="Cursive" font-size="12" text-anchor="middle" x="965.8" y="591.4545454545455">TXD_2</text>
<rect fill="#FFFFFF" height="15" rx="3" ry="3" stroke="#757575" stroke-width="1" width="26.0" x="994.8" y="578.9545454545455"/><text fill="#000000" font-family="Candara" font-size="10" text-anchor="middle" x="1007.8" y="591.4545454545455">CMP+</text>
<rect fill="#FFFFFF" height="15" rx="3" ry="3" stroke="#757575" stroke-width="1" width="26.0" x="1030.8" y="578.9545454545455"/><text fill="#000000" font-family="Candara" font-size="10" text-anchor="middle" x="1043.8" y="591.4545454545455">TK15</text>
<rect fill="#000000" height="15" rx="3" ry="3" stroke="#ebffec" stroke-width="1" width="23.599999999999998" x="642.4" y="599.8636363636364"/><text fill="#FFFFFF" font-family="Cursive" font-size="12" text-anchor="middle" x="654.1999999999999" y="612.3636363636364">GND</text>
<rect fill="#000000" height="15" rx="3" ry="3" stroke="#ebffec" stroke-width="1" width="30.799999999999997" x="601.6" y="599.8636363636364"/><text fill="#FFFFFF" font-family="Cursive" font-size="12" text-anchor="middle" x="617.0" y="612.3636363636364">AGND</text>
<rect fill="#ffff56" height="15" rx="7" ry="7" stroke="#000000" stroke-width="1" width="30.799999999999997" x="870.0" y="599.8636363636364"/><text fill="#000000" font-family="Cursive" font-size="12" text-anchor="middle" x="885.4" y="612.3636363636364">P3.6</text>
<rect fill="#00ffff" height="15" rx="3" ry="3" stroke="#424242" stroke-width="1" width="38.0" x="910.8" y="599.8636363636364"/><text fill="#000000" font-family="Cursive" font-size="12" text-anchor="middle" x="929.8" y="612.3636363636364">ADC14</text>
<rect fill="#FFFFFF" height="15" rx="3" ry="3" stroke="#757575" stroke-width="1" width="26.0" x="958.8" y="599.8636363636364"/><text fill="#000000" font-family="Candara" font-size="10" text-anchor="middle" x="971.8" y="612.3636363636364">INT2</text>
<rect fill="#ff8302" height="15" rx="3" ry="3" stroke="#000000" stroke-width="1" width="38.0" x="994.8" y="599.8636363636364"/><text fill="#FFFFFF" font-family="Cursive" font-size="12" text-anchor="middle" x="1013.8" y="612.3636363636364">RXD_2</text>
<rect fill="#FFFFFF" height="15" rx="3" ry="3" stroke="#757575" stroke-width="1" width="26.0" x="1042.8" y="599.8636363636364"/><text fill="#000000" font-family="Candara" font-size="10" text-anchor="middle" x="1055.8" y="612.3636363636364">CMP-</text>
<rect fill="#FFFFFF" height="15" rx="3" ry="3" stroke="#757575" stroke-width="1" width="26.0" x="1078.8" y="599.8636363636364"/><text fill="#000000" font-family="Candara" font-size="10" text-anchor="middle" x="1091.8" y="612.3636363636364">TK14</text>
<rect fill="#ffff56" height="15" rx="7" ry="7" stroke="#000000" stroke-width="1" width="30.799999999999997" x="635.2" y="620.7727272727273"/><text fill="#000000" font-family="Cursive" font-size="12" text-anchor="middle" x="650.6" y="633.2727272727273">P3.0</text>
<rect fill="#00ffff" height="15" rx="3" ry="3" stroke="#424242" stroke-width="1" width="30.799999999999997" x="594.4000000000001" y="620.7727272727273"/><text fill="#000000" font-family="Cursive" font-size="12" text-anchor="middle" x="609.8000000000001" y="633.2727272727273">ADC8</text>
<rect fill="#ff8302" height="15" rx="3" ry="3" stroke="#000000" stroke-width="1" width="23.599999999999998" x="560.8000000000001" y="620.7727272727273"/><text fill="#FFFFFF" font-family="Cursive" font-size="12" text-anchor="middle" x="572.6" y="633.2727272727273">RXD</text>
<rect fill="#FFFFFF" height="15" rx="3" ry="3" stroke="#757575" stroke-width="1" width="26.0" x="524.8000000000001" y="620.7727272727273"/><text fill="#000000" font-family="Candara" font-size="10" text-anchor="middle" x="537.8000000000001" y="633.2727272727273">INT4</text>
<rect fill="#FFFFFF" height="15" rx="3" ry="3" stroke="#757575" stroke-width="1" width="20.0" x="494.80000000000007" y="620.7727272727273"/><text fill="#000000" font-family="Candara" font-size="10" text-anchor="middle" x="504.80000000000007" y="633.2727272727273">TK8</text>
<rect fill="#ffff56" height="15" rx="7" ry="7" stroke="#000000" stroke-width="1" width="30.799999999999997" x="870.0" y="620.7727272727273"/><text fill="#000000" font-family="Cursive" font-size="12" text-anchor="middle" x="885.4" y="633.2727272727273">P3.5</text>
<rect fill="#00ffff" height="15" rx="3" ry="3" stroke="#424242" stroke-width="1" width="38.0" x="910.8" y="620.7727272727273"/><text fill="#000000" font-family="Cursive" font-size="12" text-anchor="middle" x="929.8" y="633.2727272727273">ADC13</text>
<rect fill="#FFFFFF" height="15" rx="3" ry="3" stroke="#757575" stroke-width="1" width="14.0" x="958.8" y="620.7727272727273"/><text fill="#000000" font-family="Candara" font-size="10" text-anchor="middle" x="965.8" y="633.2727272727273">T1</text>
<rect fill="#FFFFFF" height="15" rx="3" ry="3" stroke="#757575" stroke-width="1" width="38.0" x="982.8" y="620.7727272727273"/><text fill="#000000" font-family="Candara" font-size="10" text-anchor="middle" x="1001.8" y="633.2727272727273">T0CLKO</text>
<rect fill="#FFFFFF" height="15" rx="3" ry="3" stroke="#757575" stroke-width="1" width="26.0" x="1030.8" y="620.7727272727273"/><text fill="#000000" font-family="Candara" font-size="10" text-anchor="middle" x="1043.8" y="633.2727272727273">SS_4</text>
<rect fill="#FFFFFF" height="15" rx="3" ry="3" stroke="#757575" stroke-width="1" width="38.0" x="1066.8" y="620.7727272727273"/><text fill="#000000" font-family="Candara" font-size="10" text-anchor="middle" x="1085.8" y="633.2727272727273">PWMFLT</text>
<rect fill="#FFFFFF" height="15" rx="3" ry="3" stroke="#757575" stroke-width="1" width="44.0" x="1114.8" y="620.7727272727273"/><text fill="#000000" font-family="Candara" font-size="10" text-anchor="middle" x="1136.8" y="633.2727272727273">PWMFLT2</text>
<rect fill="#FFFFFF" height="15" rx="3" ry="3" stroke="#757575" stroke-width="1" width="26.0" x="1168.8" y="620.7727272727273"/><text fill="#000000" font-family="Candara" font-size="10" text-anchor="middle" x="1181.8" y="633.2727272727273">TK13</text>
<rect fill="#ffff56" height="15" rx="7" ry="7" stroke="#000000" stroke-width="1" width="30.799999999999997" x="635.2" y="641.6818181818182"/><text fill="#000000" font-family="Cursive" font-size="12" text-anchor="middle" x="650.6" y="654.1818181818182">P3.1</text>
<rect fill="#00ffff" height="15" rx="3" ry="3" stroke="#424242" stroke-width="1" width="30.799999999999997" x="594.4000000000001" y="641.6818181818182"/><text fill="#000000" font-family="Cursive" font-size="12" text-anchor="middle" x="609.8000000000001" y="654.1818181818182">ADC9</text>
<rect fill="#ff8302" height="15" rx="3" ry="3" stroke="#000000" stroke-width="1" width="23.599999999999998" x="560.8000000000001" y="641.6818181818182"/><text fill="#FFFFFF" font-family="Cursive" font-size="12" text-anchor="middle" x="572.6" y="654.1818181818182">TXD</text>
<rect fill="#FFFFFF" height="15" rx="3" ry="3" stroke="#757575" stroke-width="1" width="20.0" x="530.8000000000001" y="641.6818181818182"/><text fill="#000000" font-family="Candara" font-size="10" text-anchor="middle" x="540.8000000000001" y="654.1818181818182">TK9</text>
<rect fill="#ffff56" height="15" rx="7" ry="7" stroke="#000000" stroke-width="1" width="30.799999999999997" x="870.0" y="641.6818181818182"/><text fill="#000000" font-family="Cursive" font-size="12" text-anchor="middle" x="885.4" y="654.1818181818182">P3.4</text>
<rect fill="#00ffff" height="15" rx="3" ry="3" stroke="#424242" stroke-width="1" width="38.0" x="910.8" y="641.6818181818182"/><text fill="#000000" font-family="Cursive" font-size="12" text-anchor="middle" x="929.8" y="654.1818181818182">ADC12</text>
<rect fill="#FFFFFF" height="15" rx="3" ry="3" stroke="#757575" stroke-width="1" width="14.0" x="958.8" y="641.6818181818182"/><text fill="#000000" font-family="Candara" font-size="10" text-anchor="middle" x="965.8" y="654.1818181818182">T0</text>
<rect fill="#FFFFFF" height="15" rx="3" ry="3" stroke="#757575" stroke-width="1" width="38.0" x="982.8" y="641.6818181818182"/><text fill="#000000" font-family="Candara" font-size="10" text-anchor="middle" x="1001.8" y="654.1818181818182">T1CLKO</text>
<rect fill="#007f00" height="15" rx="3" ry="3" stroke="#424242" stroke-width="1" width="45.199999999999996" x="1030.8" y="641.6818181818182"/><text fill="#43bbea" font-family="Cursive" font-size="12" text-anchor="middle" x="1053.3999999999999" y="654.1818181818182">MOSI_4</text>
<rect fill="#FFFFFF" height="15" rx="3" ry="3" stroke="#757575" stroke-width="1" width="44.0" x="1086.0" y="641.6818181818182"/><text fill="#000000" font-family="Candara" font-size="10" text-anchor="middle" x="1108.0" y="654.1818181818182">PWM4P_2</text>
<rect fill="#FFFFFF" height="15" rx="3" ry="3" stroke="#757575" stroke-width="1" width="38.0" x="1140.0" y="641.6818181818182"/><text fill="#000000" font-family="Candara" font-size="10" text-anchor="middle" x="1159.0" y="654.1818181818182">PWM8_2</text>
<rect fill="#FFFFFF" height="15" rx="3" ry="3" stroke="#757575" stroke-width="1" width="26.0" x="1188.0" y="641.6818181818182"/><text fill="#000000" font-family="Candara" font-size="10" text-anchor="middle" x="1201.0" y="654.1818181818182">CMPO</text>
<rect fill="#FFFFFF" height="15" rx="3" ry="3" stroke="#757575" stroke-width="1" width="26.0" x="1224.0" y="641.6818181818182"/><text fill="#000000" font-family="Candara" font-size="10" text-anchor="middle" x="1237.0" y="654.1818181818182">TK12</text>
<rect fill="#ffff56" height="15" rx="7" ry="7" stroke="#000000" stroke-width="1" width="30.799999999999997" x="635.2" y="662.5909090909091"/><text fill="#000000" font-family="Cursive" font-size="12" text-anchor="middle" x="650.6" y="675.0909090909091">P3.2</text>
<rect fill="#00ffff" height="15" rx="3" ry="3" stroke="#424242" stroke-width="1" width="38.0" x="587.2" y="662.5909090909091"/><text fill="#000000" font-family="Cursive" font-size="12" text-anchor="middle" x="606.2" y="675.0909090909091">ADC10</text>
<rect fill="#FFFFFF" height="15" rx="3" ry="3" stroke="#757575" stroke-width="1" width="26.0" x="551.2" y="662.5909090909091"/><text fill="#000000" font-family="Candara" font-size="10" text-anchor="middle" x="564.2" y="675.0909090909091">INT0</text>
<rect fill="#007fff" height="15" rx="3" ry="3" stroke="#424242" stroke-width="1" width="45.199999999999996" x="496.00000000000006" y="662.5909090909091"/><text fill="#E0E0E0" font-family="Cursive" font-size="12" text-anchor="middle" x="518.6" y="675.0909090909091">SCLK_4</text>
<rect fill="#007fff" height="15" rx="3" ry="3" stroke="#424242" stroke-width="1" width="38.0" x="448.00000000000006" y="662.5909090909091"/><text fill="#E0E0E0" font-family="Cursive" font-size="12" text-anchor="middle" x="467.00000000000006" y="675.0909090909091">SCL_4</text>
<rect fill="#FFFFFF" height="15" rx="3" ry="3" stroke="#757575" stroke-width="1" width="38.0" x="400.00000000000006" y="662.5909090909091"/><text fill="#000000" font-family="Candara" font-size="10" text-anchor="middle" x="419.00000000000006" y="675.0909090909091">PWMETI</text>
<rect fill="#FFFFFF" height="15" rx="3" ry="3" stroke="#757575" stroke-width="1" width="44.0" x="346.00000000000006" y="662.5909090909091"/><text fill="#000000" font-family="Candara" font-size="10" text-anchor="middle" x="368.00000000000006" y="675.0909090909091">PWMETI2</text>
<rect fill="#FFFFFF" height="15" rx="3" ry="3" stroke="#757575" stroke-width="1" width="26.0" x="310.00000000000006" y="662.5909090909091"/><text fill="#000000" font-family="Candara" font-size="10" text-anchor="middle" x="323.00000000000006" y="675.0909090909091">TK10</text>
<rect fill="#ffff56" height="15" rx="7" ry="7" stroke="#000000" stroke-width="1" width="30.799999999999997" x="870.0" y="662.5909090909091"/><text fill="#000000" font-family="Cursive" font-size="12" text-anchor="middle" x="885.4" y="675.0909090909091">P3.3</text>
<rect fill="#00ffff" height="15" rx="3" ry="3" stroke="#424242" stroke-width="1" width="38.0" x="910.8" y="662.5909090909091"/><text fill="#000000" font-family="Cursive" font-size="12" text-anchor="middle" x="929.8" y="675.0909090909091">ADC11</text>
<rect fill="#FFFFFF" height="15" rx="3" ry="3" stroke="#757575" stroke-width="1" width="26.0" x="958.8" y="662.5909090909091"/><text fill="#000000" font-family="Candara" font-size="10" text-anchor="middle" x="971.8" y="675.0909090909091">INT1</text>
<rect fill="#007f00" height="15" rx="3" ry="3" stroke="#424242" stroke-width="1" width="45.199999999999996" x="994.8" y="662.5909090909091"/><text fill="#43bbea" font-family="Cursive" font-size="12" text-anchor="middle" x="1017.4" y="675.0909090909091">MISO_4</text>
<rect fill="#007fff" height="15" rx="3" ry="3" stroke="#424242" stroke-width="1" width="38.0" x="1050.0" y="662.5909090909091"/><text fill="#E0E0E0" font-family="Cursive" font-size="12" text-anchor="middle" x="1069.0" y="675.0909090909091">SDA_4</text>
<rect fill="#FFFFFF" height="15" rx="3" ry="3" stroke="#757575" stroke-width="1" width="44.0" x="1098.0" y="662.5909090909091"/><text fill="#000000" font-family="Candara" font-size="10" text-anchor="middle" x="1120.0" y="675.0909090909091">PWM4N_2</text>
<rect fill="#FFFFFF" height="15" rx="3" ry="3" stroke="#757575" stroke-width="1" width="38.0" x="1152.0" y="662.5909090909091"/><text fill="#000000" font-family="Candara" font-size="10" text-anchor="middle" x="1171.0" y="675.0909090909091">PWM7_2</text>
<rect fill="#FFFFFF" height="15" rx="3" ry="3" stroke="#757575" stroke-width="1" width="26.0" x="1200.0" y="662.5909090909091"/><text fill="#000000" font-family="Candara" font-size="10" text-anchor="middle" x="1213.0" y="675.0909090909091">TK11</text>
</g>
<g class="legend_layer" transform="translate(10, 10)" id="legend">
<rect fill="#000000" height="15" rx="3" ry="3" stroke="#ebffec" stroke-width="1" width="50" x="0" y="0"/>
<text fill="#FFFFFF" font-family="Cursive" font-size="14" text-anchor="middle" x="25.0" y="12">GND</text>
<rect fill="#FF0000" height="15" rx="3" ry="3" stroke="#37f06b" stroke-width="1" width="50" x="0" y="18"/>
<text fill="#000000" font-family="Cursive" font-size="14" text-anchor="middle" x="25.0" y="30">VCC</text>
<rect fill="#55ff00" height="15" rx="3" ry="3" stroke="#000000" stroke-width="1" width="50" x="0" y="36"/>
<text fill="#000000" font-family="Cursive" font-size="14" text-anchor="middle" x="25.0" y="48">RESET</text>
<rect fill="#ffff56" height="15" rx="3" ry="3" stroke="#000000" stroke-width="1" width="50" x="0" y="54"/>
<text fill="#000000" font-family="Cursive" font-size="14" text-anchor="middle" x="25.0" y="66">GPIO</text>
<rect fill="#a3bf06" height="15" rx="3" ry="3" stroke="#424242" stroke-width="1" width="50" x="0" y="72"/>
<text fill="#ff8501" font-family="Cursive" font-size="14" text-anchor="middle" x="25.0" y="84">PWM</text>
<rect fill="#ff8302" height="15" rx="3" ry="3" stroke="#000000" stroke-width="1" width="50" x="0" y="90"/>
<text fill="#FFFFFF" font-family="Cursive" font-size="14" text-anchor="middle" x="25.0" y="102">USART</text>
<rect fill="#007fff" height="15" rx="3" ry="3" stroke="#424242" stroke-width="1" width="50" x="0" y="108"/>
<text fill="#E0E0E0" font-family="Cursive" font-size="14" text-anchor="middle" x="25.0" y="120">I2C</text>
<rect fill="#007f00" height="15" rx="3" ry="3" stroke="#424242" stroke-width="1" width="50" x="0" y="126"/>
<text fill="#43bbea" font-family="Cursive" font-size="14" text-anchor="middle" x="25.0" y="138">SPI</text>
<rect fill="#00ffff" height="15" rx="3" ry="3" stroke="#424242" stroke-width="1" width="50" x="0" y="144"/>
<text fill="#000000" font-family="Cursive" font-size="14" text-anchor="middle" x="25.0" y="156">ADC</text>
<rect fill="#ffaaff" height="15" rx="3" ry="3" stroke="#565656" stroke-width="1" width="50" x="0" y="162"/>
<text fill="#3f3f3f" font-family="Cursive" font-size="14" text-anchor="middle" x="25.0" y="174">DAC</text>
<rect fill="#d2ffbd" height="15" rx="3" ry="3" stroke="#422242" stroke-width="1" width="50" x="54" y="0"/>
<text fill="#3f3f3f" font-family="Cursive" font-size="14" text-anchor="middle" x="79.0" y="12">TIM</text>
<rect fill="#0055ff" height="15" rx="3" ry="3" stroke="#007fff" stroke-width="1" width="50" x="54" y="18"/>
<text fill="#ebffec" font-family="Cursive" font-size="14" text-anchor="middle" x="79.0" y="30">I2S</text>
<rect fill="#afcbbf" height="15" rx="3" ry="3" stroke="#424242" stroke-width="1" width="50" x="54" y="36"/>
<text fill="#000000" font-family="Cursive" font-size="14" text-anchor="middle" x="79.0" y="48">XTAL</text>
<rect fill="#024570" height="15" rx="3" ry="3" stroke="#424242" stroke-width="1" width="50" x="54" y="54"/>
<text fill="#ffffff" font-family="Cursive" font-size="14" text-anchor="middle" x="79.0" y="66">CAN</text>
<rect fill="#7d1f21" height="15" rx="3" ry="3" stroke="#424242" stroke-width="1" width="50" x="54" y="72"/>
<text fill="#ebffec" font-family="Cursive" font-size="14" text-anchor="middle" x="79.0" y="84">LAN</text>
<rect fill="#566a62" height="15" rx="3" ry="3" stroke="#424242" stroke-width="1" width="50" x="54" y="90"/>
<text fill="#000000" font-family="Cursive" font-size="14" text-anchor="middle" x="79.0" y="102">USB</text>
<rect fill="#757877" height="15" rx="3" ry="3" stroke="#424242" stroke-width="1" width="50" x="54" y="108"/>
<text fill="#ebffec" font-family="Cursive" font-size="14" text-anchor="middle" x="79.0" y="120">SDIO</text>
<rect fill="#0093cf" height="15" rx="3" ry="3" stroke="#424242" stroke-width="1" width="50" x="54" y="126"/>
<text fill="#ebffec" font-family="Cursive" font-size="14" text-anchor="middle" x="79.0" y="138">SWD</text>
<rect fill="#83de06" height="15" rx="3" ry="3" stroke="#424242" stroke-width="1" width="50" x="54" y="144"/>
<text fill="#000000" font-family="Cursive" font-size="14" text-anchor="middle" x="79.0" y="156">JTAG</text>
<rect fill="#e1e1e1" height="15" rx="3" ry="3" stroke="#000000" stroke-width="1" width="50" x="54" y="162"/>
<text fill="#000000" font-family="Cursive" font-size="14" text-anchor="middle" x="79.0" y="174">BOOT</text>
<rect fill="#fea3a8" height="15" rx="3" ry="3" stroke="#424242" stroke-width="1" width="50" x="108" y="0"/>
<text fill="#000000" font-family="Cursive" font-size="14" text-anchor="middle" x="133.0" y="12">RTC</text>
<rect fill="#48bced" height="15" rx="3" ry="3" stroke="#424242" stroke-width="1" width="50" x="108" y="18"/>
<text fill="#000000" font-family="Cursive" font-size="14" text-anchor="middle" x="133.0" y="30">WDG</text>
<rect fill="#c6c6c6" height="15" rx="3" ry="3" stroke="#424242" stroke-width="1" width="50" x="108" y="36"/>
<text fill="#ebffec" font-family="Cursive" font-size="14" text-anchor="middle" x="133.0" y="48">NC</text>
<rect fill="#FFFFFF" height="15" rx="3" ry="3" stroke="#757575" stroke-width="1" width="50" x="108" y="54"/>
<text fill="#000000" font-family="Cursive" font-size="14" text-anchor="middle" x="133.0" y="66">OTHER</text>
</g>
<text fill="#ffffff" font-family="Fantasy" font-size="22" font-weight="bold" text-anchor="middle" x="768.0" y="556.0">STC8H1K08T</text>
<text fill="#ffffff" font-family="Cursive" font-size="12" text-anchor="middle" x="768.0" y="576.0">PID</text>
<text fill="#ffffff" font-family="Cursive" font-size="8" text-anchor="middle" x="768.0" y="591.0">20 PIN</text>
</svg>